<?xml version="1.0" standalone="no"?>
<!DOCTYPE svg PUBLIC "-//W3C//DTD SVG 1.1//EN" "http://www.w3.org/Graphics/SVG/1.1/DTD/svg11.dtd" >
<svg xmlns="http://www.w3.org/2000/svg">
<metadata></metadata>
<defs>
<font id="avenir_nextmedium" horiz-adv-x="1218" >
<font-face units-per-em="2048" ascent="1638" descent="-410" />
<missing-glyph horiz-adv-x="512" />
<glyph unicode="&#xfb01;" horiz-adv-x="1175" d="M12 813v158h193v203q0 88 19 158q20 72 64 126q46 55 112 84q71 31 167 31q73 0 121 -14l-22 -166q-15 4 -45 10q-20 4 -52 4q-55 0 -89 -19q-33 -19 -52 -53q-20 -36 -25 -74q-6 -42 -6 -87v-203h226v-158h-226v-813h-192v813h-193zM782 1321q0 53 37 89t90 36t91 -36 t38 -89t-38 -88t-91 -35t-90 36t-37 87zM813 0v971h193v-971h-193z" />
<glyph unicode="&#xfb02;" horiz-adv-x="1175" d="M12 813v158h193v203q0 88 19 158q20 72 64 126q46 55 112 84q71 31 167 31q73 0 121 -14l-22 -166q-15 4 -45 10q-20 4 -52 4q-55 0 -89 -19q-33 -19 -52 -53q-20 -36 -25 -74q-6 -42 -6 -87v-203h226v-158h-226v-813h-192v813h-193zM813 0v1548h193v-1548h-193z" />
<glyph horiz-adv-x="1024" />
<glyph horiz-adv-x="1024" />
<glyph unicode="&#xd;" horiz-adv-x="0" />
<glyph unicode=" "  horiz-adv-x="512" />
<glyph unicode="&#x09;" horiz-adv-x="512" />
<glyph unicode="&#xa0;" horiz-adv-x="512" />
<glyph unicode="!" horiz-adv-x="684" d="M205 121q0 55 39 95t98 40t98 -39t39 -94q0 -53 -39 -94t-98 -41q-57 0 -97 40t-40 93zM240 424v1026h202v-1026h-202z" />
<glyph unicode="&#x22;" horiz-adv-x="866" d="M184 938v512h168v-512h-168zM514 938v512h168v-512h-168z" />
<glyph unicode="#" horiz-adv-x="1175" d="M84 432v150h217l39 288h-201v150h223l60 430h153l-61 -430h242l59 430h154l-62 -430h185v-150h-205l-41 -288h190v-150h-209l-61 -432h-154l62 432h-242l-61 -432h-152l62 432h-197zM453 582h241l39 288h-239z" />
<glyph unicode="$" d="M84 180l149 127q27 -39 66 -69q46 -35 80 -53q36 -18 83 -32q42 -12 79 -12v521q-81 23 -155 54q-72 30 -131 80q-57 48 -91 115q-35 68 -35 164q0 91 34 162q36 75 90 122q59 51 131 80q74 29 157 34v143h104v-141q103 -1 216 -40q110 -37 188 -116l-140 -129 q-46 60 -119 90q-76 32 -145 33v-488q92 -32 155 -59q76 -33 137 -83q59 -48 97 -122q37 -71 37 -172q0 -97 -34 -172q-35 -78 -92 -129q-62 -55 -136 -81q-83 -29 -164 -30v-147h-104v147q-137 5 -254 57q-119 54 -203 146zM324 1087q0 -97 60 -150q59 -52 157 -81v457 q-90 -6 -154 -65q-63 -58 -63 -161zM645 141q43 1 86 19t73 46q32 30 51 75q19 44 19 106q0 100 -65 156q-67 58 -164 90v-492z" />
<glyph unicode="%" horiz-adv-x="1781" d="M84 1112q0 74 29 141t77 115q50 50 115 78q67 29 141 29q75 0 142 -29q63 -27 114 -78q50 -50 78 -115q29 -67 29 -141t-29 -141q-28 -65 -78 -115q-51 -51 -114 -78q-65 -28 -142 -28q-76 0 -141 28t-115 78q-48 48 -77 115t-29 141zM254 1112q0 -42 15 -76t41 -60 t61 -41t75 -15q39 0 75 15t62 41t41 60t15 76q0 39 -15 75q-14 34 -41 61q-26 26 -62 41q-38 16 -75 16q-38 0 -75 -16q-35 -15 -61 -41q-27 -27 -41 -61q-15 -36 -15 -75zM379 2l889 1514l137 -68l-887 -1514zM973 338q0 76 28 141t78 115t115 78t141 28q77 0 142 -28 q63 -27 114 -78q50 -50 78 -115q29 -67 29 -141t-29 -141q-28 -65 -78 -115q-51 -51 -114 -78q-67 -29 -142 -29q-74 0 -141 29q-65 28 -115 78t-78 115t-28 141zM1143 338q0 -42 15 -76t41 -60t61 -41q37 -16 75 -16q37 0 75 16q34 14 61 41q26 26 41 60q16 37 16 76 q0 37 -16 75q-14 34 -41 61t-61 41q-36 15 -75 15q-41 0 -75 -15q-35 -15 -61 -41q-27 -27 -41 -61q-15 -36 -15 -75z" />
<glyph unicode="&#x26;" horiz-adv-x="1480" d="M98 385q0 79 28 146q26 63 73 116q46 53 104 90q64 42 121 68q-73 76 -118 152q-48 81 -48 180q0 86 32 153q32 66 86 110t124 65q72 22 145 22q72 0 143 -22q69 -22 119 -64q52 -45 82 -107q31 -65 31 -147q0 -71 -26 -129q-28 -62 -68 -105q-44 -47 -100 -84 q-55 -36 -117 -65l288 -297l183 307h225l-279 -432l332 -342h-268l-180 190q-82 -102 -186 -159q-105 -58 -255 -58q-95 0 -180 27q-87 27 -150 79q-66 54 -103 129q-38 78 -38 177zM303 389q0 -56 23 -104q23 -47 60 -80q36 -31 87 -50q49 -18 100 -18q106 0 177 46 t131 136l-344 361q-107 -45 -170 -113q-64 -69 -64 -178zM453 1135q0 -37 13 -70q14 -37 34 -69q20 -33 46 -62q23 -26 50 -51q42 19 88 45q42 23 76 57q31 31 53 72q21 39 21 86q0 78 -53 131t-134 53q-83 0 -139 -53q-55 -52 -55 -139z" />
<glyph unicode="'" horiz-adv-x="536" d="M184 938v512h168v-512h-168z" />
<glyph unicode="(" horiz-adv-x="645" d="M70 590q0 259 82 493q83 236 217 418l139 -90q-121 -167 -193 -382q-71 -212 -71 -439t71 -439q72 -215 193 -382l-139 -91q-134 182 -217 418q-82 234 -82 494z" />
<glyph unicode=")" horiz-adv-x="645" d="M137 -231q121 167 193 382q71 212 71 439t-71 439q-72 215 -193 382l139 90q136 -185 218 -418q81 -231 81 -493q0 -263 -81 -494q-82 -233 -218 -418z" />
<glyph unicode="*" horiz-adv-x="929" d="M57 1114l56 156l260 -84v264h164v-264l260 84l55 -156l-260 -84l166 -223l-131 -98l-172 231l-172 -231l-131 98l165 223z" />
<glyph unicode="+" horiz-adv-x="1363" d="M143 537v168h455v454h168v-454h455v-168h-455v-455h-168v455h-455z" />
<glyph unicode="," horiz-adv-x="532" d="M70 -272l141 512h192l-170 -512h-163z" />
<glyph unicode="-" horiz-adv-x="655" d="M90 418v164h475v-164h-475z" />
<glyph unicode="." horiz-adv-x="532" d="M129 121q0 55 39 95t98 40q60 0 99 -39q38 -38 38 -94q0 -55 -38 -94q-39 -41 -99 -41q-57 0 -97 40t-40 93z" />
<glyph unicode="/" horiz-adv-x="778" d="M-4 -18l629 1538l145 -54l-629 -1534z" />
<glyph unicode="0" d="M115 725q0 160 28 297q28 138 89 243q58 101 155 162q95 60 223 60q130 0 223 -60q94 -61 153 -162q61 -105 89 -243q29 -142 29 -297q0 -158 -29 -298q-28 -137 -89 -242q-59 -101 -153 -162q-93 -60 -223 -60q-129 0 -223 60q-97 61 -155 162q-61 105 -89 242 q-28 136 -28 298zM317 725q0 -83 13 -197q12 -101 44 -192q31 -88 89 -147q57 -58 147 -58q88 0 145 58q55 57 89 147q33 89 45 192q12 105 12 197t-12 197q-12 104 -45 193q-34 92 -89 148q-57 58 -145 58q-90 0 -147 -58q-57 -59 -89 -148q-32 -91 -44 -193 q-13 -114 -13 -197z" />
<glyph unicode="1" d="M186 1116l412 334h178v-1450h-198v1208l-275 -229z" />
<glyph unicode="2" d="M123 0v190l577 574q67 69 113 141q47 74 47 166q0 60 -20 104q-19 43 -56 78q-34 32 -82 51q-44 17 -100 17q-109 0 -182 -71q-72 -71 -90 -181l-195 33q12 82 52 152q41 70 102 123q62 53 142 81q82 29 173 29q90 0 173 -27q85 -28 147 -78q64 -52 101 -129 q38 -79 38 -178q0 -66 -19 -129q-17 -57 -50 -112q-36 -60 -74 -102q-39 -43 -91 -95l-471 -459h711v-178h-946z" />
<glyph unicode="3" d="M82 283l184 61q33 -94 112 -154q78 -59 193 -59q58 0 108 17q52 18 93 53q43 36 66 86q24 51 24 121q0 76 -33 127t-85 82q-56 33 -117 46q-64 13 -129 13h-62v164h64q66 0 120 11q58 12 103 39t73 75q27 47 27 116q0 59 -20 100q-21 44 -57 74q-40 33 -81 49 q-44 17 -98 17q-91 0 -156 -47t-98 -131l-180 63q53 131 171 206t271 75q88 0 171 -26q82 -26 143 -75t97 -122q36 -74 36 -170q0 -61 -20 -115q-20 -55 -53 -96q-35 -45 -81 -74q-46 -30 -102 -45v-4q62 -12 118 -43q53 -30 93 -77q39 -47 61 -105q23 -61 23 -129 q0 -108 -41 -192q-40 -81 -109 -138q-68 -56 -155 -84q-90 -29 -181 -29q-173 0 -303 78q-130 77 -190 242z" />
<glyph unicode="4" d="M63 326v180l617 944h244v-954h209v-170h-209v-326h-193v326h-668zM268 496h463v727h-4z" />
<glyph unicode="5" d="M96 254l180 72q35 -89 110 -142q76 -53 173 -53q62 0 119 23q56 22 96 63q41 41 65 98q23 55 23 127q0 83 -27 143q-26 58 -75 99q-46 39 -109 57q-65 19 -129 19q-81 0 -168 -23q-86 -23 -153 -57l20 770h783v-176h-598l-13 -381q36 13 91 20q58 7 96 7q103 0 193 -32 q91 -32 154 -91t101 -145q37 -84 37 -189q0 -115 -39 -207q-40 -94 -106 -157t-160 -100q-92 -36 -201 -36q-171 0 -287 79t-176 212z" />
<glyph unicode="6" d="M106 440q0 119 39 215q38 93 103 197l379 598h235l-389 -584l2 -4q31 18 82 29q49 10 98 10q97 0 178 -34q83 -35 144 -94q61 -60 96 -144q35 -85 35 -183q0 -107 -38 -197q-39 -91 -105 -153q-68 -64 -159 -98q-93 -35 -198 -35q-108 0 -200 36q-94 37 -159 99 q-68 65 -105 152q-38 90 -38 190zM307 438q0 -60 22 -120q21 -57 61 -97q42 -42 95 -65q58 -25 123 -25q67 0 122 23q54 22 94 64q42 43 62 98q21 57 21 124q0 66 -21 121q-20 53 -60 96q-39 42 -93 64t-123 22q-68 0 -124 -22q-53 -21 -96 -64q-40 -40 -61 -96 q-22 -58 -22 -123z" />
<glyph unicode="7" d="M131 1274v176h924v-180l-582 -1270h-227l604 1274h-719z" />
<glyph unicode="8" d="M123 395q0 71 21 133q20 60 60 109q38 47 88 79t105 48v4q-96 33 -160 119q-63 84 -63 205q0 89 35 162q35 74 94 125q62 54 138 80q82 28 169 28q86 0 168 -28q77 -26 138 -78q59 -50 94 -123q34 -71 34 -162q0 -120 -62 -207q-63 -88 -161 -121v-4q63 -17 108 -48 q49 -34 87 -81q36 -45 58 -109t22 -131q0 -103 -39 -182q-38 -78 -106 -135q-65 -55 -154 -85t-187 -30t-187 30q-92 31 -156 85q-66 56 -105 135t-39 182zM326 406q0 -64 20 -113q21 -52 58 -87q35 -34 91 -56q53 -21 115 -21t114 21q53 21 89 56q37 35 58 87q22 53 22 113 q0 57 -22 109q-21 50 -58 87q-36 36 -89 57q-52 21 -114 21q-60 0 -113 -21q-55 -22 -90 -57q-40 -40 -60 -87q-21 -49 -21 -109zM373 1085q0 -51 17 -92q18 -43 49 -74q33 -33 76 -51q44 -18 95 -18q48 0 92 18q40 16 76 51q34 32 51 74q19 46 19 92q0 51 -20 96 q-20 43 -51 75q-32 32 -75 50q-41 17 -92 17q-54 0 -95 -17q-44 -18 -76 -50q-31 -31 -49 -75q-17 -41 -17 -96z" />
<glyph unicode="9" d="M111 1004q0 110 37 197q38 89 106 153q68 63 160 98q93 35 198 35q108 0 199 -36q94 -37 159 -99q66 -63 104 -152q38 -90 38 -190q0 -119 -39 -215q-41 -100 -100 -197l-379 -598h-236l390 586l-3 2q-31 -19 -83 -29q-14 -3 -51 -7q-25 -3 -48 -3q-97 0 -178 34 q-82 34 -143 94q-63 62 -97 144q-34 83 -34 183zM311 1010q0 -63 22 -121q21 -55 60 -96q41 -42 94 -64q54 -22 123 -22q68 0 124 22q53 21 96 64q41 41 62 96t21 123q0 63 -21 120q-20 55 -62 98q-41 43 -95 66q-58 25 -123 25q-68 0 -123 -24t-95 -64q-39 -39 -61 -98 q-22 -60 -22 -125z" />
<glyph unicode=":" horiz-adv-x="614" d="M170 121q0 55 39 95t98 40q60 0 99 -39q38 -38 38 -94q0 -55 -38 -94q-39 -41 -99 -41q-57 0 -97 40t-40 93zM170 848q0 54 39 94q39 41 98 41q60 0 99 -40q38 -39 38 -93q0 -56 -38 -95q-39 -40 -99 -40q-57 0 -97 39t-40 94z" />
<glyph unicode=";" horiz-adv-x="614" d="M88 -272l141 512h193l-170 -512h-164zM170 848q0 54 39 94q39 41 98 41q60 0 99 -40q38 -39 38 -93q0 -56 -38 -95q-39 -40 -99 -40q-57 0 -97 39t-40 94z" />
<glyph unicode="&#x3c;" horiz-adv-x="1363" d="M162 559v123l1044 473v-174l-788 -360l784 -361v-174z" />
<glyph unicode="=" horiz-adv-x="1363" d="M143 369v166h1078v-166h-1078zM143 707v165h1078v-165h-1078z" />
<glyph unicode="&#x3e;" horiz-adv-x="1363" d="M162 86v174l784 361l-784 360v174l1040 -473v-123z" />
<glyph unicode="?" horiz-adv-x="1024" d="M98 1102q12 88 51 159q38 68 98 119q59 50 134 75q78 26 162 26q82 0 160 -25q75 -24 133 -73q57 -48 90 -118q32 -68 32 -163q0 -69 -14 -115q-15 -49 -40 -89q-27 -43 -62 -75t-80 -71q-35 -30 -70 -63q-28 -26 -45 -56q-15 -25 -23 -64q-8 -37 -8 -86v-71h-192v98 q0 55 10 96q10 44 30 78q20 36 47 67q22 26 62 64l76 72q46 40 75 85q30 47 30 118q0 98 -63 156q-64 59 -161 59q-102 0 -163 -66q-62 -66 -72 -160zM393 121q0 55 39 95t98 40q60 0 99 -39t39 -94q0 -53 -39 -94t-99 -41q-57 0 -97 40t-40 93z" />
<glyph unicode="@" horiz-adv-x="1638" d="M68 723q0 165 61 303q62 140 168 242q106 101 249 160q144 59 304 59q138 0 270 -41q131 -41 233 -123q102 -83 162 -205q60 -123 60 -289q0 -123 -33 -217q-33 -95 -88 -157q-57 -65 -128 -96t-152 -31q-86 0 -133 42q-46 42 -46 101h-10q-11 -21 -35 -48t-55 -47 q-35 -22 -73 -35q-39 -13 -89 -13q-139 0 -217 93t-78 240q0 85 29 170q28 83 82 149q51 62 128 104q74 40 167 40q80 0 133 -33q57 -35 74 -83h4l18 86h156l-80 -385q-3 -15 -13 -72q-8 -46 -8 -74q0 -35 15 -63q15 -29 67 -29q45 0 83 26q39 26 65 70q27 44 42 109 q15 63 15 137q0 128 -42 227q-42 100 -118 165q-78 68 -180 101q-100 33 -227 33q-134 0 -246 -47q-109 -46 -190 -131q-80 -85 -123 -197q-43 -113 -43 -245q0 -141 46 -252q47 -114 128 -192q80 -77 195 -121q113 -43 251 -43q174 0 300 54q128 55 231 152l94 -108 q-120 -125 -286 -186q-165 -60 -355 -60q-180 0 -321 56q-145 57 -246 157q-102 101 -159 241q-56 139 -56 306zM618 655q0 -21 7 -58q6 -33 22 -59q17 -29 45 -46q30 -19 74 -19q62 0 106 32t71 78q29 50 40 100q12 54 12 99q0 40 -7 72q-8 39 -24 62q-20 29 -46 46 q-27 17 -74 17q-56 0 -98 -30q-41 -29 -70 -77q-27 -45 -43 -104q-15 -57 -15 -113z" />
<glyph unicode="A" horiz-adv-x="1456" d="M10 0l629 1450h184l623 -1450h-229l-148 356h-688l-145 -356h-226zM453 535h542l-270 679z" />
<glyph unicode="B" horiz-adv-x="1314" d="M176 0v1450h500q81 0 164 -18q80 -17 146 -62q64 -43 105 -113q39 -66 39 -174q0 -119 -69 -202t-184 -113v-4q65 -7 129 -36q56 -25 102 -73q43 -44 67 -106q23 -59 23 -137q0 -106 -43 -183q-44 -79 -117 -128t-173 -75q-101 -26 -212 -26h-477zM379 172h254 q69 0 128 11q66 12 117 40q52 28 84 77q31 47 31 122q0 129 -88 186q-90 58 -254 58h-272v-494zM379 838h264q59 0 110 13t91 41q37 26 61 70q23 43 23 101q0 117 -86 167t-232 50h-231v-442z" />
<glyph unicode="C" horiz-adv-x="1449" d="M102 727q0 168 59 310q59 141 162 240q105 100 244 155q140 55 307 55q79 0 150 -14q78 -15 145 -43q70 -29 127 -71q61 -45 99 -97l-160 -123q-53 74 -151 122t-210 48q-127 0 -228 -46q-100 -46 -173 -126q-71 -78 -111 -186q-38 -102 -38 -224q0 -124 37 -229 t109 -186q70 -79 172 -124t226 -45q122 0 224 50q99 49 165 143l162 -111q-85 -116 -223 -189t-330 -73q-167 0 -306 56q-141 57 -242 158t-158 242q-58 143 -58 308z" />
<glyph unicode="D" horiz-adv-x="1558" d="M176 0v1450h498q137 0 278 -41q140 -41 252 -129q113 -89 182 -225q70 -138 70 -330q0 -185 -70 -323q-69 -136 -182 -225q-115 -90 -252 -133q-141 -44 -278 -44h-498zM379 178h254q133 0 243 37t192 107q80 68 126 172q45 102 45 231q0 136 -45 238t-126 171 q-79 67 -192 104q-111 36 -243 36h-254v-1096z" />
<glyph unicode="E" horiz-adv-x="1230" d="M176 0v1450h930v-178h-727v-434h684v-174h-684v-484h758v-180h-961z" />
<glyph unicode="F" horiz-adv-x="1163" d="M176 0v1450h905v-178h-702v-451h657v-174h-657v-647h-203z" />
<glyph unicode="G" horiz-adv-x="1593" d="M102 727q0 168 59 310q59 141 162 240q105 100 244 155q140 55 307 55q174 0 311 -51q133 -50 226 -138l-141 -147q-66 72 -167 115t-226 43q-129 0 -230 -46q-102 -47 -174 -126q-71 -78 -111 -186q-38 -102 -38 -224q0 -123 38 -227q39 -106 111 -186q72 -79 176 -124 q105 -45 234 -45q98 0 188 19q86 18 150 53v404h-322v172h522v-703q-111 -60 -250 -94q-135 -33 -294 -33q-173 0 -313 56q-145 58 -245 158q-103 103 -159 242q-58 143 -58 308z" />
<glyph unicode="H" horiz-adv-x="1492" d="M176 0v1450h203v-606h733v606h205v-1450h-205v664h-733v-664h-203z" />
<glyph unicode="I" horiz-adv-x="555" d="M176 0v1450h203v-1450h-203z" />
<glyph unicode="J" horiz-adv-x="1013" d="M31 270l188 54q17 -78 72 -129q57 -52 137 -52q64 0 108 25q42 24 66 66q25 43 35 99q10 54 10 120v997h203v-1006q0 -78 -16 -159q-16 -83 -62 -156q-45 -73 -126 -119q-82 -47 -208 -47q-164 0 -270 86q-104 84 -137 221z" />
<glyph unicode="K" horiz-adv-x="1349" d="M176 0v1450h203v-639h4l647 639h281l-705 -664l748 -786h-291l-680 750h-4v-750h-203z" />
<glyph unicode="L" horiz-adv-x="1046" d="M176 0v1450h203v-1270h647v-180h-850z" />
<glyph unicode="M" horiz-adv-x="1849" d="M176 0v1450h316l434 -1114h4l428 1114h315v-1450h-203v1212h-4l-481 -1212h-129l-479 1212h-4v-1212h-197z" />
<glyph unicode="N" horiz-adv-x="1581" d="M176 0v1450h264l758 -1159h4v1159h203v-1450h-256l-766 1184h-4v-1184h-203z" />
<glyph unicode="O" horiz-adv-x="1738" d="M102 727q0 167 58 310q57 141 159 240q103 100 243 155t306 55q168 0 308 -55t243 -155t161 -240t58 -310q0 -168 -58 -308q-57 -138 -161 -242q-100 -100 -243 -158q-139 -56 -308 -56q-167 0 -306 56q-143 58 -243 158q-103 103 -159 242q-58 143 -58 308zM322 727 q0 -123 38 -227q39 -106 111 -186q72 -79 172 -124q101 -45 225 -45q126 0 228 45q103 45 174 124q70 78 110 186q39 107 39 227q0 119 -39 224q-41 109 -110 186q-73 80 -173 126q-101 46 -229 46q-125 0 -226 -46t-172 -126q-70 -79 -110 -186q-38 -102 -38 -224z" />
<glyph unicode="P" d="M176 0v1450h442q117 0 213 -24q100 -25 164 -72q68 -50 105 -125t37 -182q0 -110 -40 -187t-111 -127q-69 -49 -168 -73q-93 -23 -210 -23h-229v-637h-203zM379 809h215q75 0 136 13q62 13 108 41q44 27 69 73q25 47 25 111q0 65 -26 109q-27 46 -69 72q-43 27 -106 39 q-56 11 -133 11h-219v-469z" />
<glyph unicode="Q" horiz-adv-x="1732" d="M102 743q0 161 58 300q57 136 157 235q99 98 239 154q137 55 302 55q164 0 299 -55q139 -57 238 -154q98 -97 156 -235q57 -137 57 -300q0 -195 -82 -340t-217 -229v-4h399v-170h-852q-165 0 -304 53q-136 52 -239 150q-99 94 -155 233q-56 138 -56 307zM322 743 q0 -120 37 -222q36 -99 108 -179q69 -76 168 -120q100 -44 221 -44q118 0 218 44q101 44 169 120q71 79 109 179q39 103 39 222t-37 220q-37 102 -107 179t-168 122q-99 45 -221 45t-221 -45q-97 -44 -169 -122t-109 -179t-37 -220z" />
<glyph unicode="R" horiz-adv-x="1257" d="M176 0v1450h465q100 0 199 -22q93 -21 165 -68q70 -46 111 -124q41 -77 41 -187q0 -160 -98 -258t-254 -125l405 -666h-245l-369 645h-217v-645h-203zM379 815h233q72 0 133 12q59 11 108 40q44 26 73 72q26 42 26 110q0 67 -26 109q-27 44 -71 71q-41 26 -103 38 q-55 11 -125 11h-248v-463z" />
<glyph unicode="S" horiz-adv-x="1165" d="M76 174l157 133q50 -75 138 -123q86 -47 186 -47q51 0 102 15q53 16 94 45t68 76q27 46 27 112q0 65 -28 110q-27 43 -75 74q-53 34 -109 53l-132 44q-78 24 -137 50q-71 31 -121 76q-54 48 -86 113q-33 67 -33 168q0 108 44 187q43 77 115 129q68 49 159 74 q88 24 180 24q126 0 237 -45t178 -121l-143 -139q-43 59 -117 97t-166 38q-51 0 -99 -13q-52 -14 -91 -43q-42 -31 -67 -74t-25 -106q0 -60 23 -99q25 -42 64 -68q43 -28 94 -47q20 -7 116 -40q68 -21 149 -51q72 -27 137 -76q62 -47 101 -117t39 -180q0 -113 -42 -195 t-112 -137q-69 -54 -161 -81t-187 -27q-136 0 -265 53q-128 53 -212 158z" />
<glyph unicode="T" horiz-adv-x="1165" d="M16 1272v178h1133v-178h-465v-1272h-203v1272h-465z" />
<glyph unicode="U" horiz-adv-x="1458" d="M166 537v913h203v-901q0 -75 18 -147q18 -74 60 -130q43 -58 111 -92q70 -35 171 -35q100 0 170 35t112 92q42 56 60 130q19 76 19 147v901h202v-913q0 -112 -34 -214q-35 -106 -103 -184q-69 -80 -176 -128t-250 -48t-250 48t-176 128q-68 78 -103 184q-34 102 -34 214z " />
<glyph unicode="V" horiz-adv-x="1314" d="M-4 1450h225l436 -1188h7l436 1188h219l-569 -1450h-189z" />
<glyph unicode="W" horiz-adv-x="2023" d="M20 1450h220l319 -1155h4l340 1155h223l338 -1155h4l320 1155h215l-426 -1450h-211l-352 1165h-4l-353 -1165h-211z" />
<glyph unicode="X" horiz-adv-x="1368" d="M37 0l518 768l-467 682h248l348 -541l344 541h238l-463 -686l526 -764h-256l-397 610l-389 -610h-250z" />
<glyph unicode="Y" horiz-adv-x="1277" d="M-6 1450h250l401 -655l404 655h235l-543 -823v-627h-204v627z" />
<glyph unicode="Z" horiz-adv-x="1212" d="M68 0v178l817 1094h-801v178h1049v-178l-820 -1092h832v-180h-1077z" />
<glyph unicode="[" horiz-adv-x="645" d="M121 -319v1818h362v-135h-190v-1548h190v-135h-362z" />
<glyph unicode="\" horiz-adv-x="778" d="M8 1466l144 54l630 -1538l-145 -50z" />
<glyph unicode="]" horiz-adv-x="645" d="M162 -184h190v1548h-190v135h362v-1818h-362v135z" />
<glyph unicode="^" horiz-adv-x="1363" d="M152 633l462 817h136l462 -817h-186l-346 614l-342 -614h-186z" />
<glyph unicode="_" horiz-adv-x="1024" d="M0 -154h1024v-129h-1024v129z" />
<glyph unicode="`" horiz-adv-x="512" d="M-70 1450h232l205 -295h-158z" />
<glyph unicode="a" horiz-adv-x="1110" d="M94 274q0 112 60 176q59 64 155 98q92 33 217 44q116 10 244 10v27q0 109 -65 161t-175 52q-81 0 -154 -32t-122 -81l-102 123q71 67 175 106q103 39 222 39q107 0 181 -29q76 -30 126 -81t74 -121q24 -69 24 -150v-423q0 -50 3 -104q3 -45 12 -89h-174q-17 71 -17 139 h-6q-52 -77 -134 -121q-80 -43 -192 -43q-52 0 -119 16q-62 15 -114 50q-50 34 -85 92q-34 56 -34 141zM291 279q0 -45 17 -72q19 -30 46 -47q29 -18 64 -26q32 -7 71 -7q136 0 208 81q73 82 73 204v51h-47q-73 0 -149 -6q-71 -6 -139 -25q-63 -18 -103 -55q-41 -38 -41 -98 z" />
<glyph unicode="b" horiz-adv-x="1302" d="M170 0v1548h192v-723h7q51 74 137 122q89 50 209 50q109 0 197 -39q90 -40 154 -108t99 -163q35 -94 35 -200q0 -104 -35 -200q-34 -94 -98 -164q-63 -69 -154 -110q-89 -40 -202 -40q-106 0 -199 46q-95 47 -152 135h-4v-154h-186zM350 485q0 -70 24 -133 q25 -66 66 -111q44 -48 104 -77q61 -29 134 -29q80 0 140 30q63 32 102 79q40 49 61 112q20 60 20 131q0 72 -20 132q-21 63 -61 112q-40 48 -102 78q-61 29 -140 29q-73 0 -134 -29t-104 -78q-41 -47 -66 -112q-24 -63 -24 -134z" />
<glyph unicode="c" horiz-adv-x="1011" d="M102 485q0 115 39 209q38 93 109 162q68 66 165 105q91 36 206 36q100 0 203 -41q101 -40 161 -118l-139 -113q-31 48 -92 79q-62 32 -131 32q-75 0 -135 -29q-58 -28 -99 -77q-41 -48 -62 -112q-22 -66 -22 -133t22 -133q21 -62 62 -111q42 -49 100 -77q61 -29 136 -29 q73 0 134 29q60 28 99 78l129 -117q-61 -71 -153 -112q-90 -40 -209 -40q-115 0 -208 37q-96 38 -165 104q-70 67 -110 160t-40 211z" />
<glyph unicode="d" horiz-adv-x="1300" d="M100 487q0 106 35 200q35 95 99 163q64 69 155 108q90 39 199 39q118 0 207 -50q87 -49 139 -122h4v723h192v-1548h-186v154h-4q-56 -88 -150 -135q-93 -46 -200 -46q-114 0 -203 40q-91 41 -154 110q-64 70 -98 164q-35 96 -35 200zM301 487q0 -68 21 -131t61 -112 t100 -79t140 -30q73 0 134 29q58 28 103 77q43 47 67 111q23 60 23 133t-23 133q-25 65 -67 113q-44 50 -103 78q-61 29 -134 29q-79 0 -140 -29q-59 -28 -100 -78q-39 -48 -61 -113q-21 -63 -21 -131z" />
<glyph unicode="e" horiz-adv-x="1173" d="M102 483q0 112 38 208q37 94 106 163q67 67 160 105t198 38q108 0 194 -34t147 -101q60 -66 93 -159t33 -209v-33q0 -11 -2 -33h-770q1 -60 28 -116q26 -55 68 -94t100 -62t119 -23q99 0 170 43q73 44 113 105l135 -109q-79 -104 -183 -151q-105 -48 -235 -48 q-111 0 -204 37q-94 37 -162 104q-69 67 -107 160q-39 94 -39 209zM299 571h578q-2 57 -20 108q-19 52 -51 87q-34 37 -84 58q-52 22 -118 22q-59 0 -116 -22q-54 -21 -94 -58q-39 -36 -65 -87q-25 -49 -30 -108z" />
<glyph unicode="f" horiz-adv-x="634" d="M12 813v158h193v203q0 88 19 158q20 72 64 126q46 55 112 84q71 31 167 31q73 0 121 -14l-22 -166q-15 4 -45 10q-20 4 -52 4q-55 0 -89 -19q-33 -19 -52 -53q-20 -36 -25 -74q-6 -42 -6 -87v-203h226v-158h-226v-813h-192v813h-193z" />
<glyph unicode="g" horiz-adv-x="1294" d="M102 492q0 103 35 196q34 90 99 161q61 66 153 108q89 40 201 40q106 0 200 -45t150 -137h4v156h186v-922q0 -110 -26 -204q-27 -97 -90 -172q-61 -73 -166 -119q-104 -46 -254 -46q-126 0 -255 47q-130 47 -220 130l123 149q62 -71 158 -115q93 -43 196 -43q94 0 162 28 q62 26 105 76q40 47 58 114q17 62 17 141v125h-4q-51 -80 -146 -125q-90 -43 -196 -43q-110 0 -202 39q-91 39 -154 106q-66 70 -99 159q-35 93 -35 196zM301 496q0 -65 22 -129q22 -63 63 -109q44 -49 101 -76q59 -28 136 -28q76 0 135 26q61 27 104 73q44 47 67 108 q23 60 23 135q0 72 -23 131q-24 61 -68 108q-46 49 -104 75q-62 28 -134 28q-74 0 -136 -28q-58 -26 -101 -74q-43 -47 -63 -108q-22 -66 -22 -132z" />
<glyph unicode="h" horiz-adv-x="1196" d="M170 0v1548h192v-725h5q35 72 118 123q84 51 189 51q96 0 162 -31q65 -30 112 -85q46 -54 67 -125q21 -72 21 -154v-602h-192v537q0 59 -9 112q-9 52 -34 94t-67 66q-44 25 -109 25q-115 0 -189 -88t-74 -232v-514h-192z" />
<glyph unicode="i" horiz-adv-x="530" d="M137 1321q0 53 37 89q38 36 90 36q54 0 91 -36q38 -36 38 -89t-38 -88t-91 -35q-52 0 -90 36q-37 36 -37 87zM168 0v971h192v-971h-192z" />
<glyph unicode="j" horiz-adv-x="532" d="M-63 -479l20 164q42 -11 78 -11q41 0 69 17q25 15 41 44q16 28 20 65q5 42 5 81v1090h192v-1096q0 -75 -13 -139q-13 -66 -48 -117t-96 -81t-158 -30q-24 0 -57 5q-52 8 -53 8zM137 1321q0 53 38 89q37 36 91 36t91 -36q38 -36 38 -89t-38 -88t-91 -35q-54 0 -91 36 q-38 36 -38 87z" />
<glyph unicode="k" horiz-adv-x="1079" d="M170 0v1548h192v-999h7l407 422h258l-454 -441l493 -530h-266l-438 504h-7v-504h-192z" />
<glyph unicode="l" horiz-adv-x="532" d="M170 0v1548h192v-1548h-192z" />
<glyph unicode="m" horiz-adv-x="1816" d="M158 971h182q5 -38 6 -83q2 -62 2 -77h6q38 78 118 132q81 54 192 54q98 0 177 -45t124 -149q50 95 137 144q89 50 192 50q96 0 162 -31q67 -31 113 -85q45 -52 66 -125q22 -75 22 -154v-602h-193v539q0 62 -10 112q-11 53 -35 94q-25 42 -65 66q-42 25 -105 25 q-64 0 -112 -28q-46 -26 -77 -72q-29 -42 -43 -99q-13 -53 -13 -113v-524h-193v578q0 60 -10 104q-10 45 -35 81q-22 32 -64 53q-40 20 -96 20q-106 0 -177 -87q-71 -88 -71 -233v-516h-192v762q0 18 -2 100q-2 63 -6 109z" />
<glyph unicode="n" horiz-adv-x="1191" d="M158 971h182q5 -38 6 -83q2 -62 2 -77h6q17 37 50 73q28 31 73 59q39 25 90 40q46 14 103 14q95 0 161 -31q67 -31 113 -85t67 -125q21 -72 21 -154v-602h-192v539q0 54 -10 112q-9 54 -33 94q-25 42 -68 66q-45 25 -111 25q-115 0 -187 -87q-73 -88 -73 -233v-516h-192 v762q0 18 -2 100q-2 63 -6 109z" />
<glyph unicode="o" horiz-adv-x="1249" d="M102 487q0 114 40 206q41 93 110 161q68 67 166 105q97 38 207 38q109 0 206 -38t167 -105t111 -161q40 -92 40 -206q0 -113 -40 -206q-40 -94 -111 -163q-71 -70 -167 -107q-97 -38 -206 -38q-110 0 -207 38t-166 107q-70 70 -110 163t-40 206zM301 487q0 -67 22 -133 q20 -61 62 -112q40 -49 101 -78t139 -29q77 0 138 29t101 78q43 53 63 112q21 63 21 133q0 71 -21 134q-20 60 -63 111q-41 48 -101 77q-61 29 -138 29q-78 0 -139 -29q-60 -29 -101 -77q-41 -49 -62 -111q-22 -66 -22 -134z" />
<glyph unicode="p" horiz-adv-x="1298" d="M166 -492v1463h188v-152h6q46 78 139 128q92 50 212 50q109 0 197 -39q90 -40 154 -108t99 -163q35 -94 35 -200q0 -104 -35 -200q-34 -94 -98 -164q-63 -69 -154 -110q-89 -40 -202 -40q-105 0 -197 45q-93 46 -145 127h-7v-637h-192zM346 485q0 -70 24 -133 q25 -66 66 -111q44 -48 104 -77q61 -29 134 -29q80 0 140 30q62 31 101 79q42 51 62 112q20 60 20 131q0 72 -20 132q-20 61 -62 112q-40 49 -101 78t-140 29q-73 0 -134 -29t-104 -78q-41 -47 -66 -112q-24 -63 -24 -134z" />
<glyph unicode="q" horiz-adv-x="1296" d="M100 487q0 106 35 200q35 95 99 163q64 69 155 108q90 39 199 39q118 0 210 -50q89 -48 140 -128h6v152h186v-1463h-192v637h-4q-51 -81 -147 -127q-93 -45 -197 -45q-114 0 -203 40q-91 41 -154 110q-64 70 -98 164q-35 96 -35 200zM301 487q0 -68 21 -131t61 -112 t100 -79t140 -30q73 0 134 29q58 28 103 77q43 47 67 111q23 60 23 133t-23 133q-25 65 -67 113q-44 50 -103 78q-61 29 -134 29q-79 0 -140 -29q-59 -28 -100 -78q-39 -48 -61 -113q-21 -63 -21 -131z" />
<glyph unicode="r" horiz-adv-x="741" d="M158 971h182q5 -38 6 -85q2 -64 2 -79h6q40 85 120 138q79 52 177 52q44 0 76 -8l-8 -178q-39 10 -88 10q-71 0 -121 -25t-85 -69q-34 -42 -50 -99q-17 -59 -17 -118v-510h-192v762q0 18 -2 100q-2 63 -6 109z" />
<glyph unicode="s" horiz-adv-x="909" d="M53 147l137 117q39 -57 108 -96t151 -39q38 0 70 7q35 8 62 24q28 17 44 43t16 67q0 68 -64 101q-62 32 -190 61q-49 12 -99 30q-51 19 -91 48q-42 31 -67 77q-26 47 -26 113q0 77 32 135q30 55 83 92q49 34 117 53q62 17 135 17q103 0 202 -41q98 -41 150 -118 l-133 -113q-34 53 -92 87q-59 34 -133 34q-35 0 -66 -7t-58 -23q-26 -15 -41 -39t-15 -58q0 -61 55 -91q59 -32 166 -55q76 -18 129 -38q59 -22 103 -57q46 -37 69 -81q24 -47 24 -110q0 -88 -32 -146q-33 -59 -87 -97q-53 -37 -124 -54t-144 -17q-112 0 -216 43 q-108 45 -175 131z" />
<glyph unicode="t" horiz-adv-x="673" d="M6 813v158h187v278h190v-278h258v-158h-258v-506q0 -89 33 -126q33 -38 104 -38q23 0 58 7q32 6 55 18l6 -158q-31 -11 -77 -19q-39 -7 -87 -7q-139 0 -210 75q-72 77 -72 228v526h-187z" />
<glyph unicode="u" horiz-adv-x="1191" d="M158 369v602h192v-537q0 -59 9 -113t34 -96q24 -41 68 -65q45 -25 110 -25q117 0 189 87q71 86 71 233v516h193v-762q0 -18 2 -100q2 -63 6 -109h-182q-5 38 -6 83q-2 62 -2 77h-4q-38 -78 -124 -132q-89 -55 -194 -55q-92 0 -163 31q-67 29 -112 85q-46 57 -66 126 q-21 72 -21 154z" />
<glyph unicode="v" horiz-adv-x="1032" d="M18 971h213l285 -764h4l287 764h205l-389 -971h-209z" />
<glyph unicode="w" horiz-adv-x="1583" d="M29 971h209l219 -742h4l231 742h203l235 -742h5l219 742h202l-321 -971h-201l-239 729h-4l-238 -729h-201z" />
<glyph unicode="x" horiz-adv-x="1046" d="M14 0l389 510l-354 461h238l237 -334l240 334h225l-350 -459l391 -512h-239l-271 379l-274 -379h-232z" />
<glyph unicode="y" horiz-adv-x="1032" d="M18 971h215l302 -762h4l268 762h205l-471 -1200q-22 -56 -54 -110q-28 -48 -67 -82q-38 -34 -91 -52q-55 -19 -124 -19q-21 0 -63 4q-27 3 -64 11l18 170q51 -17 97 -17q75 0 112 42q38 43 68 120l61 162z" />
<glyph unicode="z" horiz-adv-x="946" d="M68 0v158l548 655h-522v158h764v-158l-553 -651h576v-162h-813z" />
<glyph unicode="{" horiz-adv-x="645" d="M10 514v152q63 0 107 43q45 43 45 141v385q0 72 19 120q20 52 53 83t78 47q41 14 91 14h140v-141h-105q-35 0 -55 -13t-31 -35q-9 -18 -14 -47q-4 -23 -4 -53v-374q0 -66 -22 -113q-21 -45 -52 -73q-30 -27 -63 -42q-32 -14 -54 -16v-4q16 -1 54 -15q33 -12 63 -39 q31 -27 52 -75q22 -49 22 -121v-369q0 -29 4 -52q5 -29 14 -47q11 -22 31 -35t55 -13h105v-141h-140q-50 0 -91 14q-45 16 -78 47q-33 32 -53 82q-19 48 -19 121v377q0 104 -45 148q-46 44 -107 44z" />
<glyph unicode="|" horiz-adv-x="454" d="M143 -512v2048h168v-2048h-168z" />
<glyph unicode="}" horiz-adv-x="645" d="M102 -178h107q33 0 53 13t31 35q9 18 14 47q4 23 4 52v369q0 72 22 121q21 48 52 75q29 26 64 39q38 14 55 15v4q-23 2 -55 16q-35 16 -64 42q-31 28 -52 73q-22 47 -22 113v374q0 30 -4 53q-5 29 -14 47q-11 22 -31 35t-53 13h-107v141h140q50 0 91 -14q45 -16 78 -47 t53 -83q19 -48 19 -120v-385q0 -98 45 -141q44 -43 107 -43v-152q-61 0 -107 -44q-45 -44 -45 -148v-377q0 -73 -19 -121q-20 -50 -53 -82q-33 -31 -78 -47q-41 -14 -91 -14h-140v141z" />
<glyph unicode="~" horiz-adv-x="1363" d="M166 586q72 119 148 159q77 41 147 41q62 0 113 -16q55 -17 122 -61q45 -28 68 -41q33 -19 51 -25q25 -8 42 -11q19 -3 42 -3q102 0 178 139l121 -113q-38 -60 -74 -98q-38 -39 -74 -61q-40 -24 -75 -31q-40 -8 -72 -8q-61 0 -112 16q-52 16 -125 62q-30 18 -67 39 q-33 18 -50 24q-25 8 -42 11q-19 3 -42 3q-102 0 -178 -139z" />
<glyph unicode="&#xa1;" horiz-adv-x="684" d="M205 877q0 53 40 93t97 40q59 0 98 -41t39 -95q0 -55 -39 -94t-98 -39t-98 40q-39 41 -39 96zM240 -453v1026h202v-1026h-202z" />
<glyph unicode="&#xa2;" d="M170 487q0 100 31 190q29 85 88 153t139 109q83 42 184 54v133h105v-131q98 -5 185 -40q91 -37 155 -113l-135 -123q-34 45 -87 75q-50 28 -118 33v-684q63 1 120 33q54 30 89 76l131 -123q-65 -75 -156 -113q-87 -36 -184 -41v-135h-105v137q-101 10 -184 54t-139 110 q-59 69 -88 156q-31 91 -31 190zM360 485q0 -127 66 -221q67 -95 186 -119v680q-122 -22 -187 -117t-65 -223z" />
<glyph unicode="&#xa3;" d="M143 0v172h205v494h-198v147h198v180q0 82 24 169q24 89 78 160q55 73 144 119t223 46q96 0 186 -31q85 -29 152 -92l-121 -137q-38 42 -96 68t-125 26q-83 0 -133 -34q-51 -35 -81 -85t-40 -110q-10 -57 -10 -111v-168h340v-147h-340v-494h538v-172h-944z" />
<glyph unicode="&#xa4;" d="M41 100l176 181q-39 57 -63 132q-25 78 -25 158q0 84 22 156q21 69 60 129l-170 172l106 105l172 -168q60 41 135 66q76 26 158 26q85 0 160 -26q74 -26 131 -66l170 168l107 -105l-168 -168q42 -58 65 -131q23 -74 23 -158q0 -83 -26 -161q-25 -76 -66 -136l172 -174 l-105 -106l-178 174q-60 -42 -129 -64q-70 -22 -156 -22q-78 0 -151 24q-68 22 -133 66l-181 -178zM301 571q0 -65 22 -126q20 -57 62 -103q41 -45 98 -71q56 -25 129 -25t130 25q59 26 100 71q42 46 62 103q22 61 22 126t-22 126q-21 59 -62 103q-40 43 -100 69t-130 26 q-71 0 -129 -26t-98 -69q-41 -44 -62 -103q-22 -61 -22 -126z" />
<glyph unicode="&#xa5;" d="M27 1450h235l356 -602l349 602h225l-426 -662h289v-135h-348v-186h348v-135h-348v-332h-195v332h-348v135h348v186h-348v135h297z" />
<glyph unicode="&#xa6;" horiz-adv-x="454" d="M143 -358v716h168v-716h-168zM143 666v716h168v-716h-168z" />
<glyph unicode="&#xa7;" d="M154 -51l170 94q35 -85 110 -122q78 -38 156 -38q32 0 70 9q37 9 71 29q32 19 53 52t21 82q0 43 -17 75q-16 31 -52 58q-39 29 -91 53q-55 25 -135 60q-69 30 -124 58q-57 29 -101 67t-69 86q-26 50 -26 119q0 106 60 178t145 106q-53 33 -98 92q-43 56 -43 148 q0 83 35 147q34 63 91 103t128 61q72 21 145 21q130 0 227 -49t148 -135l-145 -107q-29 54 -88 92q-60 39 -140 39q-79 0 -141 -41q-61 -40 -61 -119q0 -42 17 -72q20 -36 50 -60q34 -28 82 -51q28 -14 113 -50q48 -20 134 -63q61 -30 108 -73q45 -41 72 -96q26 -54 26 -122 q0 -92 -51 -163q-52 -71 -123 -104q125 -84 125 -245q0 -91 -36 -157q-37 -67 -94 -110q-57 -42 -134 -64q-79 -22 -152 -22q-131 0 -253 58q-120 57 -183 176zM379 659q0 -39 15 -67q15 -29 42 -50t63 -39q48 -24 74 -36l172 -74q46 16 84 59q37 41 37 101q0 44 -15 74 q-15 29 -41 54q-24 22 -58 41q-22 12 -68 34l-154 67q-28 -7 -52 -19q-29 -15 -49 -33q-20 -19 -36 -47q-14 -25 -14 -65z" />
<glyph unicode="&#xa8;" horiz-adv-x="512" d="M-70 1321q0 49 36 87t91 38q53 0 90 -36t37 -89q0 -51 -37 -87t-90 -36q-55 0 -91 38t-36 85zM328 1321q0 49 36 87t91 38q53 0 90 -36t37 -89q0 -51 -37 -87t-90 -36q-55 0 -91 38t-36 85z" />
<glyph unicode="&#xa9;" horiz-adv-x="1638" d="M41 723q0 162 61 302q60 138 167 245q105 105 248 165t304 60q160 0 301 -60q143 -61 247 -165q107 -107 167 -245q61 -140 61 -302q0 -160 -61 -300q-60 -138 -167 -245q-103 -103 -247 -164q-139 -59 -301 -59q-164 0 -304 59q-145 61 -248 164q-107 107 -167 245 q-61 140 -61 300zM164 723q0 -137 52 -254q53 -120 141 -208q89 -89 209 -140t255 -51t254 51t208 140t140 208q52 121 52 254t-52 255q-51 120 -140 209q-88 88 -208 141q-117 52 -254 52q-136 0 -255 -52q-121 -53 -209 -141t-141 -209q-52 -119 -52 -255zM375 737 q0 108 37 192q37 85 101 144q62 58 152 92q87 33 189 33q40 0 88 -8q39 -7 88 -25q41 -16 80 -42q36 -25 64 -60l-119 -94q-35 47 -91 68q-60 22 -110 22q-65 0 -124 -25q-55 -23 -96 -67t-63 -103t-22 -127q0 -145 81 -235t218 -90q72 0 126 27q53 27 89 75l125 -88 q-62 -76 -145 -115q-87 -41 -197 -41q-104 0 -190 34q-87 35 -149 95t-97 148q-35 87 -35 190z" />
<glyph unicode="&#xaa;" horiz-adv-x="778" d="M104 1049q0 64 37 102q37 39 95 60q61 22 129 28q72 6 139 6v15q0 52 -39 79t-94 27q-47 0 -89 -18q-40 -17 -71 -48l-74 89q50 47 115 69q67 23 131 23q76 0 128 -22q50 -21 80 -57q28 -34 41 -80q11 -40 11 -87v-352h-137v75h-2q-22 -38 -71 -64t-111 -26q-31 0 -73 10 q-41 10 -71 29q-31 20 -53 56q-21 34 -21 86zM250 1051q0 -44 32 -59q31 -15 70 -15q74 0 113 40q39 41 39 109v21h-33q-35 0 -74 -3q-36 -3 -71 -14q-36 -11 -55 -28q-21 -18 -21 -51z" />
<glyph unicode="&#xab;" horiz-adv-x="1024" d="M82 500l299 444l125 -86l-236 -358l238 -359l-127 -88zM498 500l299 444l125 -86l-236 -358l236 -359l-125 -88z" />
<glyph unicode="&#xac;" horiz-adv-x="1363" d="M143 707v165h1078v-587h-166v422h-912z" />
<glyph unicode="&#xad;" horiz-adv-x="655" d="M90 418v164h475v-164h-475z" />
<glyph unicode="&#xae;" horiz-adv-x="1228" d="M147 1010q0 97 37 181q36 82 101 147q63 63 148 100q84 37 181 37q98 0 182 -37q86 -37 148 -100q63 -63 100 -147t37 -181q0 -98 -37 -181t-100 -146q-62 -62 -148 -98t-182 -36t-181 36q-86 36 -148 98q-65 65 -101 146q-37 83 -37 181zM221 1010q0 -78 31 -152 q29 -69 84 -126q54 -55 125 -85q74 -31 153 -31q80 0 154 31q71 30 125 85q55 57 84 126q31 74 31 152q0 79 -31 153q-29 70 -84 125t-125 84q-74 31 -154 31q-79 0 -153 -31q-70 -29 -125 -84t-84 -125q-31 -74 -31 -153zM416 754v524h225q35 0 72 -8q31 -7 63 -27 q27 -17 46 -50q18 -31 18 -79q0 -54 -30 -88t-75 -51l139 -221h-147l-113 202h-73v-202h-125zM541 1047h96q28 0 52 18t24 49q0 32 -27 47t-49 15h-96v-129z" />
<glyph unicode="&#xaf;" horiz-adv-x="512" d="M-47 1223v137h606v-137h-606z" />
<glyph unicode="&#xb0;" horiz-adv-x="819" d="M92 1157q0 66 25 125q24 57 67 100q44 44 101 68q59 25 125 25t125 -25q55 -23 100 -68q43 -43 67 -100q25 -59 25 -125t-25 -125q-24 -58 -67 -99q-46 -44 -100 -67q-57 -24 -125 -24t-125 24q-56 24 -101 67q-43 41 -67 99q-25 59 -25 125zM223 1157q0 -77 55 -132 q54 -54 132 -54t132 54t54 132q0 42 -14 74q-15 35 -40 60t-60 40t-72 15q-38 0 -73 -15q-34 -15 -59 -40t-40 -60t-15 -74z" />
<glyph unicode="&#xb1;" horiz-adv-x="1363" d="M143 82v166h1078v-166h-1078zM143 692v166h457v307h166v-307h455v-166h-455v-301h-166v301h-457z" />
<glyph unicode="&#xb2;" horiz-adv-x="788" d="M102 586v137l336 338q34 36 58 73q24 38 24 87q0 53 -35 83q-33 29 -88 29q-54 0 -92 -38q-36 -36 -47 -101l-152 20q17 113 97 186q81 73 194 73q53 0 107 -16q50 -15 90 -47q36 -29 62 -79q24 -47 24 -110q0 -88 -44 -150q-46 -65 -99 -115l-234 -229h379v-141h-580z " />
<glyph unicode="&#xb3;" horiz-adv-x="788" d="M82 788l145 46q17 -54 60 -90q39 -33 100 -33q56 0 102 31q48 33 48 102q0 39 -18 63q-20 27 -44 40q-30 17 -60 22q-35 6 -67 6h-55v127h55q65 0 115 29q49 28 49 100q0 49 -37 79q-36 29 -88 29q-46 0 -81 -28t-54 -76l-139 47q39 94 111 142q77 51 167 51 q59 0 108 -15q53 -16 88 -44q38 -31 59 -75q22 -47 22 -104q0 -70 -37 -119q-36 -48 -90 -71q65 -21 107 -76t42 -131q0 -68 -25 -117q-24 -47 -68 -83q-40 -33 -95 -50q-54 -17 -111 -17q-101 0 -186 51q-82 49 -123 164z" />
<glyph unicode="&#xb4;" horiz-adv-x="512" d="M145 1155l205 295h232l-279 -295h-158z" />
<glyph unicode="&#xb5;" horiz-adv-x="1183" d="M154 -492v1463h192v-537q0 -59 9 -113t34 -96q24 -41 68 -65q45 -25 110 -25q117 0 189 87q71 86 71 233v516h193v-762q0 -18 2 -100q2 -63 6 -109h-182q-5 38 -6 83q-2 62 -2 77h-4q-38 -78 -124 -132q-89 -55 -194 -55q-49 0 -97 17q-46 16 -73 45v-527h-192z" />
<glyph unicode="&#xb6;" horiz-adv-x="1228" d="M80 1047q0 203 129 303q128 100 344 100h518v-1708h-160v1579h-235v-1579h-162v928q-98 0 -176 28q-79 28 -137 80t-89 120q-32 70 -32 149z" />
<glyph unicode="&#xb7;" horiz-adv-x="532" d="M129 618q0 57 40 97q41 41 99 41t98 -40t40 -95t-39 -95q-39 -41 -99 -41q-59 0 -99 40t-40 93z" />
<glyph unicode="&#xb8;" horiz-adv-x="512" d="M25 -434l41 86q78 -35 157 -35q19 0 38 4q24 5 41 13q19 9 33 26q13 16 13 43q0 44 -35 61q-36 17 -75 17q-21 0 -41 -4q-27 -5 -43 -10l-41 40l127 193h102l-94 -141q13 4 26 4h29q32 0 69 -8q30 -7 61 -27q26 -17 45 -49q18 -30 18 -76q0 -51 -25 -89q-24 -36 -62 -57 q-41 -23 -84 -30q-50 -8 -89 -8q-54 0 -111 12q-55 11 -100 35z" />
<glyph unicode="&#xb9;" horiz-adv-x="788" d="M113 1241l256 209h137v-872h-160v679l-139 -120z" />
<glyph unicode="&#xba;" horiz-adv-x="778" d="M78 1176q0 69 23 122q24 55 65 96q39 39 98 62q58 23 125 23t125 -23q59 -23 98 -62q41 -41 65 -96q23 -53 23 -122q0 -67 -23 -122t-65 -97q-39 -39 -98 -62q-58 -23 -125 -23t-125 23q-59 23 -98 62q-42 42 -65 97t-23 122zM233 1176q0 -66 39 -117t117 -51 q77 0 118 51q40 50 40 117q0 68 -40 117q-41 50 -118 50q-78 0 -117 -50q-39 -49 -39 -117z" />
<glyph unicode="&#xbb;" horiz-adv-x="1024" d="M102 141l236 359l-236 358l125 86l299 -444l-299 -447zM516 141l238 359l-236 358l125 86l299 -444l-299 -447z" />
<glyph unicode="&#xbc;" horiz-adv-x="1781" d="M113 1241l256 209h137v-872h-160v679l-139 -120zM346 -8l924 1521l116 -63l-921 -1522zM995 186v131l363 555h170v-548h121v-138h-121v-186h-146v186h-387zM1153 324h229v356h-6z" />
<glyph unicode="&#xbd;" horiz-adv-x="1781" d="M113 1241l256 209h137v-872h-160v679l-139 -120zM346 -8l924 1521l116 -63l-921 -1522zM1081 0v137l336 338q34 36 58 73q24 38 24 87q0 53 -35 83q-34 30 -88 30t-92 -38q-36 -36 -47 -102l-152 21q16 112 97 185t194 73q53 0 107 -16q50 -15 90 -47q36 -29 62 -79 q24 -47 24 -110q0 -88 -44 -150q-43 -61 -99 -114l-234 -230h379v-141h-580z" />
<glyph unicode="&#xbe;" horiz-adv-x="1781" d="M82 788l145 46q17 -54 60 -90q39 -33 100 -33q56 0 102 31q48 33 48 102q0 39 -18 63q-20 27 -44 40q-30 17 -60 22q-35 6 -67 6h-55v127h55q65 0 115 29q49 28 49 100q0 49 -37 79q-36 29 -88 29q-46 0 -81 -28t-54 -76l-139 47q39 94 111 142q77 51 167 51 q59 0 108 -15q53 -16 88 -44q38 -31 59 -75q22 -47 22 -104q0 -70 -37 -119q-36 -48 -90 -71q65 -21 107 -76t42 -131q0 -68 -25 -117q-24 -47 -68 -83q-40 -33 -95 -50q-54 -17 -111 -17q-101 0 -186 51q-82 49 -123 164zM346 -8l924 1521l116 -63l-921 -1522zM995 186v131 l363 555h170v-548h121v-138h-121v-186h-146v186h-387zM1153 324h229v356h-6z" />
<glyph unicode="&#xbf;" horiz-adv-x="1024" d="M78 -104q0 68 14 114q15 49 40 89q26 41 63 75q67 62 79 72q47 40 69 62q24 24 45 57q17 27 25 63q7 32 7 86v72h192v-99q0 -55 -10 -96q-10 -43 -30 -78q-19 -33 -47 -66q-27 -32 -62 -65l-76 -71q-46 -40 -75 -85t-29 -118q0 -99 62 -157t161 -58q103 0 164 65 q60 65 71 160l197 -22q-12 -88 -51 -159t-97 -120t-135 -75q-75 -25 -161 -25t-161 24q-73 23 -132 73q-57 48 -90 119t-33 163zM369 874q0 54 39 95t98 41q57 0 97 -40t40 -93q0 -55 -39 -96q-39 -40 -98 -40t-98 39t-39 94z" />
<glyph unicode="&#xc0;" horiz-adv-x="1456" d="M10 0l629 1450h184l623 -1450h-229l-148 356h-688l-145 -356h-226zM375 1860h233l205 -295h-158zM453 535h542l-270 679z" />
<glyph unicode="&#xc1;" horiz-adv-x="1456" d="M10 0l629 1450h184l623 -1450h-229l-148 356h-688l-145 -356h-226zM453 535h542l-270 679zM659 1565l203 295h234l-281 -295h-156z" />
<glyph unicode="&#xc2;" horiz-adv-x="1456" d="M10 0l629 1450h184l623 -1450h-229l-148 356h-688l-145 -356h-226zM395 1565l230 295h221l229 -295h-186l-154 202l-155 -202h-185zM453 535h542l-270 679z" />
<glyph unicode="&#xc3;" horiz-adv-x="1456" d="M10 0l629 1450h184l623 -1450h-229l-148 356h-688l-145 -356h-226zM379 1581q7 45 21 87q13 40 38 76q22 31 61 54q36 21 89 21q35 0 79 -13q41 -12 74 -28q50 -22 75 -32q33 -13 63 -13q46 0 66 29q22 31 32 65h110q-7 -45 -21 -87q-13 -40 -38 -76q-23 -33 -61 -54 t-88 -21q-38 0 -80 14q-50 17 -78 29q-48 23 -71 31q-35 12 -62 12q-45 0 -65 -29q-20 -28 -31 -65h-113zM453 535h542l-270 679z" />
<glyph unicode="&#xc4;" horiz-adv-x="1456" d="M10 0l629 1450h184l623 -1450h-229l-148 356h-688l-145 -356h-226zM406 1731q0 51 35 87q36 37 91 37t91 -35t36 -89q0 -52 -36 -87q-37 -36 -91 -36q-55 0 -91 38q-35 36 -35 85zM453 535h542l-270 679zM803 1731q0 49 36 87q36 37 91 37q54 0 90 -35q37 -36 37 -89 q0 -51 -37 -87q-38 -36 -90 -36q-55 0 -91 38t-36 85z" />
<glyph unicode="&#xc5;" horiz-adv-x="1456" d="M10 0l629 1450h184l623 -1450h-229l-148 356h-688l-145 -356h-226zM453 535h542l-270 679zM528 1745q0 88 60 145q61 58 145 58q86 0 147 -58q60 -57 60 -143q0 -88 -60 -145q-61 -58 -147 -58q-40 0 -80 16q-37 15 -64 42q-29 29 -44 63q-17 39 -17 80zM612 1745 q0 -48 35 -83q34 -34 86 -34t87 34q36 34 36 85t-36 85q-35 34 -87 34q-51 0 -86 -35t-35 -86z" />
<glyph unicode="&#xc6;" horiz-adv-x="2078" d="M4 0l936 1450h1014v-178h-678v-434h635v-174h-635v-484h709v-180h-912v393h-579l-248 -393h-242zM600 569h473v703h-29z" />
<glyph unicode="&#xc7;" horiz-adv-x="1449" d="M102 727q0 168 59 310q59 141 162 240q105 100 244 155q140 55 307 55q79 0 150 -14q78 -15 145 -43q70 -29 127 -71q61 -45 99 -97l-160 -123q-53 74 -151 122t-210 48q-127 0 -228 -46q-100 -46 -173 -126q-71 -78 -111 -186q-38 -102 -38 -224q0 -124 37 -229 t109 -186q70 -79 172 -124t226 -45q122 0 224 50q99 49 165 143l162 -111q-81 -109 -213 -182q-130 -72 -311 -78l-70 -106q13 4 27 4h29q31 0 68 -8q32 -7 62 -27q26 -17 45 -49q17 -28 17 -76q0 -53 -24 -89q-23 -35 -63 -57q-41 -23 -84 -30q-50 -8 -89 -8q-54 0 -111 12 q-55 11 -100 35l41 86q78 -35 158 -35q19 0 38 4q24 5 41 13t32 26q14 17 14 43q0 44 -35 61q-36 17 -76 17q-21 0 -41 -4q-27 -5 -43 -10l-41 40l105 160q-151 12 -281 73q-125 59 -218 161q-91 100 -142 234q-52 136 -52 292z" />
<glyph unicode="&#xc8;" horiz-adv-x="1230" d="M176 0v1450h930v-178h-727v-434h684v-174h-684v-484h758v-180h-961zM360 1860h234l205 -295h-158z" />
<glyph unicode="&#xc9;" horiz-adv-x="1230" d="M176 0v1450h930v-178h-727v-434h684v-174h-684v-484h758v-180h-961zM537 1565l202 295h234l-281 -295h-155z" />
<glyph unicode="&#xca;" horiz-adv-x="1230" d="M176 0v1450h930v-178h-727v-434h684v-174h-684v-484h758v-180h-961zM311 1565l230 295h221l229 -295h-186l-154 202l-155 -202h-185z" />
<glyph unicode="&#xcb;" horiz-adv-x="1230" d="M176 0v1450h930v-178h-727v-434h684v-174h-684v-484h758v-180h-961zM324 1731q0 51 35 87q36 37 92 37q54 0 90 -35q37 -36 37 -89q0 -51 -37 -87t-90 -36q-56 0 -92 38q-35 36 -35 85zM721 1731q0 49 36 87q36 37 91 37q54 0 90 -35q37 -36 37 -89q0 -51 -37 -87 q-38 -36 -90 -36q-55 0 -91 38t-36 85z" />
<glyph unicode="&#xcc;" horiz-adv-x="555" d="M-57 1860h233l205 -295h-158zM176 0v1450h203v-1450h-203z" />
<glyph unicode="&#xcd;" horiz-adv-x="555" d="M174 1565l203 295h233l-280 -295h-156zM176 0v1450h203v-1450h-203z" />
<glyph unicode="&#xce;" horiz-adv-x="555" d="M-66 1565l230 295h221l229 -295h-186l-154 202l-155 -202h-185zM176 0v1450h203v-1450h-203z" />
<glyph unicode="&#xcf;" horiz-adv-x="555" d="M-47 1731q0 49 36 87q36 37 91 37q54 0 90 -35q37 -36 37 -89q0 -51 -37 -87q-38 -36 -90 -36q-55 0 -91 38t-36 85zM176 0v1450h203v-1450h-203zM350 1731q0 49 36 87q36 37 91 37q54 0 90 -35q37 -36 37 -89q0 -51 -37 -87t-90 -36q-55 0 -91 38t-36 85z" />
<glyph unicode="&#xd0;" horiz-adv-x="1558" d="M27 686v143h141v621h528q140 0 274 -45t240 -135t171 -227q65 -138 65 -318q0 -183 -70 -321q-69 -136 -180 -226q-112 -91 -247 -134q-138 -44 -269 -44h-512v686h-141zM373 184h239q143 0 257 39t194 110q79 70 123 170q43 98 43 222t-40 222q-41 101 -116 170 q-78 72 -187 110q-111 39 -253 39h-260v-437h485v-143h-485v-502z" />
<glyph unicode="&#xd1;" horiz-adv-x="1581" d="M176 0v1450h264l758 -1159h4v1159h203v-1450h-256l-766 1184h-4v-1184h-203zM432 1581q6 39 22 87q13 40 38 76q22 32 60 54q36 21 89 21q35 0 79 -13q43 -13 75 -28q57 -25 74 -32q33 -13 63 -13q46 0 66 29q22 31 32 65h111q-6 -39 -22 -87q-13 -40 -38 -76 q-23 -33 -61 -54t-88 -21q-38 0 -80 14q-50 17 -78 29q-48 23 -71 31q-35 12 -62 12q-44 0 -64 -29q-22 -31 -32 -65h-113z" />
<glyph unicode="&#xd2;" horiz-adv-x="1738" d="M102 727q0 167 58 310q57 141 159 240q103 100 243 155t306 55q168 0 308 -55t243 -155t161 -240t58 -310q0 -168 -58 -308q-57 -138 -161 -242q-100 -100 -243 -158q-139 -56 -308 -56q-167 0 -306 56q-143 58 -243 158q-103 103 -159 242q-58 143 -58 308zM322 727 q0 -123 38 -227q39 -106 111 -186q72 -79 172 -124q101 -45 225 -45q126 0 228 45q103 45 174 124q70 78 110 186q39 107 39 227q0 119 -39 224q-41 109 -110 186q-73 80 -173 126q-101 46 -229 46q-125 0 -226 -46t-172 -126q-70 -79 -110 -186q-38 -102 -38 -224z M557 1860h234l204 -295h-157z" />
<glyph unicode="&#xd3;" horiz-adv-x="1738" d="M102 727q0 167 58 310q57 141 159 240q103 100 243 155t306 55q168 0 308 -55t243 -155t161 -240t58 -310q0 -168 -58 -308q-57 -138 -161 -242q-100 -100 -243 -158q-139 -56 -308 -56q-167 0 -306 56q-143 58 -243 158q-103 103 -159 242q-58 143 -58 308zM322 727 q0 -123 38 -227q39 -106 111 -186q72 -79 172 -124q101 -45 225 -45q126 0 228 45q103 45 174 124q70 78 110 186q39 107 39 227q0 119 -39 224q-41 109 -110 186q-73 80 -173 126q-101 46 -229 46q-125 0 -226 -46t-172 -126q-70 -79 -110 -186q-38 -102 -38 -224z M760 1565l203 295h233l-281 -295h-155z" />
<glyph unicode="&#xd4;" horiz-adv-x="1738" d="M102 727q0 167 58 310q57 141 159 240q103 100 243 155t306 55q168 0 308 -55t243 -155t161 -240t58 -310q0 -168 -58 -308q-57 -138 -161 -242q-100 -100 -243 -158q-139 -56 -308 -56q-167 0 -306 56q-143 58 -243 158q-103 103 -159 242q-58 143 -58 308zM322 727 q0 -123 38 -227q39 -106 111 -186q72 -79 172 -124q101 -45 225 -45q126 0 228 45q103 45 174 124q70 78 110 186q39 107 39 227q0 119 -39 224q-41 109 -110 186q-73 80 -173 126q-101 46 -229 46q-125 0 -226 -46t-172 -126q-70 -79 -110 -186q-38 -102 -38 -224z M528 1565l230 295h221l229 -295h-186l-154 202l-155 -202h-185z" />
<glyph unicode="&#xd5;" horiz-adv-x="1738" d="M102 727q0 167 58 310q57 141 159 240q103 100 243 155t306 55q168 0 308 -55t243 -155t161 -240t58 -310q0 -168 -58 -308q-57 -138 -161 -242q-100 -100 -243 -158q-139 -56 -308 -56q-167 0 -306 56q-143 58 -243 158q-103 103 -159 242q-58 143 -58 308zM322 727 q0 -123 38 -227q39 -106 111 -186q72 -79 172 -124q101 -45 225 -45q126 0 228 45q103 45 174 124q70 78 110 186q39 107 39 227q0 119 -39 224q-41 109 -110 186q-73 80 -173 126q-101 46 -229 46q-125 0 -226 -46t-172 -126q-70 -79 -110 -186q-38 -102 -38 -224z M514 1581q6 39 22 87q14 42 37 76q22 31 61 54q36 21 89 21q35 0 79 -13q43 -13 75 -28q57 -25 74 -32q33 -13 63 -13q46 0 66 29q22 31 32 65h111q-6 -39 -22 -87q-13 -40 -38 -76q-23 -33 -61 -54t-88 -21q-38 0 -80 14q-50 17 -78 29q-48 23 -71 31q-35 12 -62 12 q-45 0 -65 -29q-20 -28 -31 -65h-113z" />
<glyph unicode="&#xd6;" horiz-adv-x="1738" d="M102 727q0 167 58 310q57 141 159 240q103 100 243 155t306 55q168 0 308 -55t243 -155t161 -240t58 -310q0 -168 -58 -308q-57 -138 -161 -242q-100 -100 -243 -158q-139 -56 -308 -56q-167 0 -306 56q-143 58 -243 158q-103 103 -159 242q-58 143 -58 308zM322 727 q0 -123 38 -227q39 -106 111 -186q72 -79 172 -124q101 -45 225 -45q126 0 228 45q103 45 174 124q70 78 110 186q39 107 39 227q0 119 -39 224q-41 109 -110 186q-73 80 -173 126q-101 46 -229 46q-125 0 -226 -46t-172 -126q-70 -79 -110 -186q-38 -102 -38 -224z M543 1731q0 49 36 87q36 37 91 37q54 0 90 -35q37 -36 37 -89q0 -51 -37 -87q-38 -36 -90 -36q-55 0 -91 38t-36 85zM940 1731q0 49 36 87q36 37 91 37q54 0 90 -35q37 -36 37 -89q0 -51 -37 -87t-90 -36q-55 0 -91 38t-36 85z" />
<glyph unicode="&#xd7;" horiz-adv-x="1363" d="M213 268l352 348l-350 357l117 114l350 -350l348 350l117 -114l-348 -350l352 -355l-121 -118l-350 348l-348 -348z" />
<glyph unicode="&#xd8;" horiz-adv-x="1738" d="M102 727q0 167 58 310q57 141 159 240q103 100 243 155t306 55q137 0 255 -37q121 -38 216 -109l166 179l88 -80l-161 -176q97 -98 152 -236q54 -135 54 -301q0 -169 -58 -307t-161 -241q-99 -99 -243 -157q-142 -58 -308 -59q-143 0 -266 42q-121 41 -221 120l-166 -178 l-88 80l166 180q-92 100 -141 231q-50 135 -50 289zM315 727q0 -224 117 -371l780 842q-64 53 -150 83q-87 30 -194 30q-130 0 -231 -46q-104 -47 -174 -125q-73 -80 -110 -186q-38 -108 -38 -227zM514 266q66 -58 156 -92q88 -33 198 -33q129 0 231 46q106 48 176 125 q72 80 111 186q39 107 39 229q0 113 -31 210q-31 96 -96 177z" />
<glyph unicode="&#xd9;" horiz-adv-x="1458" d="M166 537v913h203v-901q0 -75 18 -147q18 -74 60 -130q43 -58 111 -92q70 -35 171 -35q100 0 170 35t112 92q42 56 60 130q19 76 19 147v901h202v-913q0 -112 -34 -214q-35 -106 -103 -184q-69 -80 -176 -128t-250 -48t-250 48t-176 128q-68 78 -103 184q-34 102 -34 214z M381 1860h233l205 -295h-157z" />
<glyph unicode="&#xda;" horiz-adv-x="1458" d="M166 537v913h203v-901q0 -75 18 -147q18 -74 60 -130q43 -58 111 -92q70 -35 171 -35q100 0 170 35t112 92q42 56 60 130q19 76 19 147v901h202v-913q0 -112 -34 -214q-35 -106 -103 -184q-69 -80 -176 -128t-250 -48t-250 48t-176 128q-68 78 -103 184q-34 102 -34 214z M604 1565l203 295h233l-280 -295h-156z" />
<glyph unicode="&#xdb;" horiz-adv-x="1458" d="M166 537v913h203v-901q0 -75 18 -147q18 -74 60 -130q43 -58 111 -92q70 -35 171 -35q100 0 170 35t112 92q42 56 60 130q19 76 19 147v901h202v-913q0 -112 -34 -214q-35 -106 -103 -184q-69 -80 -176 -128t-250 -48t-250 48t-176 128q-68 78 -103 184q-34 102 -34 214z M385 1565l229 295h222l229 -295h-186l-154 202l-156 -202h-184z" />
<glyph unicode="&#xdc;" horiz-adv-x="1458" d="M166 537v913h203v-901q0 -75 18 -147q18 -74 60 -130q43 -58 111 -92q70 -35 171 -35q100 0 170 35t112 92q42 56 60 130q19 76 19 147v901h202v-913q0 -112 -34 -214q-35 -106 -103 -184q-69 -80 -176 -128t-250 -48t-250 48t-176 128q-68 78 -103 184q-34 102 -34 214z M403 1731q0 49 36 87q36 37 91 37t91 -35t36 -89q0 -52 -36 -87q-38 -36 -91 -36q-55 0 -91 38t-36 85zM801 1731q0 49 36 87q36 37 91 37q54 0 90 -35q37 -36 37 -89q0 -51 -37 -87q-38 -36 -90 -36q-55 0 -91 38t-36 85z" />
<glyph unicode="&#xdd;" horiz-adv-x="1277" d="M-6 1450h250l401 -655l404 655h235l-543 -823v-627h-204v627zM551 1565l203 295h233l-280 -295h-156z" />
<glyph unicode="&#xde;" d="M176 0v1450h203v-299h239q113 0 213 -25q96 -24 164 -74q67 -50 105 -126q37 -75 37 -178q0 -112 -40 -189t-111 -127q-70 -50 -168 -72q-95 -22 -210 -22h-229v-338h-203zM379 512h209q73 0 136 12q59 11 107 40q45 27 70 72t25 109t-26 108q-26 45 -70 72 q-46 28 -105 40q-61 12 -133 12h-213v-465z" />
<glyph unicode="&#xdf;" horiz-adv-x="1253" d="M164 0v1075q0 96 23 182q24 92 78 160q54 69 144 113q87 43 220 43q85 0 164 -28q71 -25 132 -78q56 -48 88 -119q31 -68 31 -156q0 -116 -60 -198t-167 -117v-5q77 -12 141 -47q65 -36 108 -89q46 -57 69 -126q24 -72 24 -155q0 -105 -35 -195q-34 -88 -99 -151 q-66 -65 -157 -99q-93 -35 -206 -35q-67 0 -146 17v162q26 -7 58 -11t63 -4q146 0 235 86t89 238q0 80 -27 140t-75 99q-49 40 -112 59t-141 19h-22v168h22q107 0 177 58q69 57 69 168q0 101 -62 164q-63 65 -169 65q-82 0 -134 -32q-49 -31 -80 -81q-30 -49 -40 -108 q-11 -63 -11 -115v-1067h-192z" />
<glyph unicode="&#xe0;" horiz-adv-x="1110" d="M94 274q0 112 60 176q59 64 155 98q92 33 217 44q116 10 244 10v27q0 109 -65 161t-175 52q-81 0 -154 -32t-122 -81l-102 123q71 67 175 106q103 39 222 39q107 0 181 -29q76 -30 126 -81t74 -121q24 -69 24 -150v-423q0 -50 3 -104q3 -45 12 -89h-174q-17 71 -17 139 h-6q-52 -77 -134 -121q-80 -43 -192 -43q-52 0 -119 16q-62 15 -114 50q-50 34 -85 92q-34 56 -34 141zM246 1450h231l205 -295h-158zM291 279q0 -45 17 -72q19 -30 46 -47q29 -18 64 -26q32 -7 71 -7q136 0 208 81q73 82 73 204v51h-47q-73 0 -149 -6q-71 -6 -139 -25 q-63 -18 -103 -55q-41 -38 -41 -98z" />
<glyph unicode="&#xe1;" horiz-adv-x="1110" d="M94 274q0 112 60 176q59 64 155 98q92 33 217 44q116 10 244 10v27q0 109 -65 161t-175 52q-81 0 -154 -32t-122 -81l-102 123q71 67 175 106q103 39 222 39q107 0 181 -29q76 -30 126 -81t74 -121q24 -69 24 -150v-423q0 -50 3 -104q3 -45 12 -89h-174q-17 71 -17 139 h-6q-52 -77 -134 -121q-80 -43 -192 -43q-52 0 -119 16q-62 15 -114 50q-50 34 -85 92q-34 56 -34 141zM291 279q0 -45 17 -72q19 -30 46 -47q29 -18 64 -26q32 -7 71 -7q136 0 208 81q73 82 73 204v51h-47q-73 0 -149 -6q-71 -6 -139 -25q-63 -18 -103 -55q-41 -38 -41 -98 zM465 1155l205 295h231l-278 -295h-158z" />
<glyph unicode="&#xe2;" horiz-adv-x="1110" d="M94 274q0 112 60 176q59 64 155 98q92 33 217 44q116 10 244 10v27q0 109 -65 161t-175 52q-81 0 -154 -32t-122 -81l-102 123q71 67 175 106q103 39 222 39q107 0 181 -29q76 -30 126 -81t74 -121q24 -69 24 -150v-423q0 -50 3 -104q3 -45 12 -89h-174q-17 71 -17 139 h-6q-52 -77 -134 -121q-80 -43 -192 -43q-52 0 -119 16q-62 15 -114 50q-50 34 -85 92q-34 56 -34 141zM209 1155l229 295h221l230 -295h-187l-153 203l-156 -203h-184zM291 279q0 -45 17 -72q19 -30 46 -47q29 -18 64 -26q32 -7 71 -7q136 0 208 81q73 82 73 204v51h-47 q-73 0 -149 -6q-71 -6 -139 -25q-63 -18 -103 -55q-41 -38 -41 -98z" />
<glyph unicode="&#xe3;" horiz-adv-x="1110" d="M94 274q0 112 60 176q59 64 155 98q92 33 217 44q116 10 244 10v27q0 109 -65 161t-175 52q-81 0 -154 -32t-122 -81l-102 123q71 67 175 106q103 39 222 39q107 0 181 -29q76 -30 126 -81t74 -121q24 -69 24 -150v-423q0 -50 3 -104q3 -45 12 -89h-174q-17 71 -17 139 h-6q-52 -77 -134 -121q-80 -43 -192 -43q-52 0 -119 16q-62 15 -114 50q-50 34 -85 92q-34 56 -34 141zM195 1171q8 47 21 88q12 38 38 75q23 34 60 55q34 20 89 20q39 0 79 -12q38 -11 75 -29q50 -22 75 -32q33 -13 62 -13q46 0 67 30q22 32 32 64h110q-7 -45 -21 -87 q-13 -40 -38 -76q-22 -32 -62 -54q-36 -20 -88 -20q-41 0 -80 13q-36 12 -77 30q-40 19 -71 30q-37 13 -63 13q-43 0 -64 -30q-22 -31 -32 -65h-112zM291 279q0 -45 17 -72q19 -30 46 -47q29 -18 64 -26q32 -7 71 -7q136 0 208 81q73 82 73 204v51h-47q-73 0 -149 -6 q-71 -6 -139 -25q-63 -18 -103 -55q-41 -38 -41 -98z" />
<glyph unicode="&#xe4;" horiz-adv-x="1110" d="M94 274q0 112 60 176q59 64 155 98q92 33 217 44q116 10 244 10v27q0 109 -65 161t-175 52q-81 0 -154 -32t-122 -81l-102 123q71 67 175 106q103 39 222 39q107 0 181 -29q76 -30 126 -81t74 -121q24 -69 24 -150v-423q0 -50 3 -104q3 -45 12 -89h-174q-17 71 -17 139 h-6q-52 -77 -134 -121q-80 -43 -192 -43q-52 0 -119 16q-62 15 -114 50q-50 34 -85 92q-34 56 -34 141zM225 1321q0 49 36 87t91 38q52 0 90 -36q37 -36 37 -89q0 -51 -37 -87q-38 -36 -90 -36q-55 0 -91 38t-36 85zM291 279q0 -45 17 -72q19 -30 46 -47q29 -18 64 -26 q32 -7 71 -7q136 0 208 81q73 82 73 204v51h-47q-73 0 -149 -6q-71 -6 -139 -25q-63 -18 -103 -55q-41 -38 -41 -98zM623 1321q0 51 35 87q36 38 92 38q52 0 90 -36q37 -36 37 -89q0 -51 -37 -87q-38 -36 -90 -36q-56 0 -92 38q-35 36 -35 85z" />
<glyph unicode="&#xe5;" horiz-adv-x="1110" d="M94 274q0 112 60 176q59 64 155 98q92 33 217 44q116 10 244 10v27q0 109 -65 161t-175 52q-81 0 -154 -32t-122 -81l-102 123q71 67 175 106q103 39 222 39q107 0 181 -29q76 -30 126 -81t74 -121q24 -69 24 -150v-423q0 -50 3 -104q3 -45 12 -89h-174q-17 71 -17 139 h-6q-52 -77 -134 -121q-80 -43 -192 -43q-52 0 -119 16q-62 15 -114 50q-50 34 -85 92q-34 56 -34 141zM291 279q0 -45 17 -72q19 -30 46 -47q29 -18 64 -26q32 -7 71 -7q136 0 208 81q73 82 73 204v51h-47q-73 0 -149 -6q-71 -6 -139 -25q-63 -18 -103 -55q-41 -38 -41 -98 zM344 1335q0 90 59 146q60 57 146 57t146 -57q61 -58 61 -144q0 -87 -61 -145q-60 -57 -146 -57q-42 0 -80 15t-65 42q-29 29 -44 63q-16 36 -16 80zM430 1337q0 -49 36 -83q34 -33 83 -33q50 0 85 32q36 33 36 84q0 49 -36 82t-85 33q-47 0 -83 -33t-36 -82z" />
<glyph unicode="&#xe6;" horiz-adv-x="1796" d="M94 248q0 107 49 171q48 63 139 98q85 33 213 44q119 10 275 10v23q0 137 -65 192q-67 56 -175 56q-81 0 -154 -32t-122 -81l-102 123q71 67 175 106q103 39 222 39q84 0 141 -17q62 -19 100 -44t63 -58q23 -30 36 -61q58 81 141 130q85 50 213 50q106 0 189 -34 t142 -101q58 -66 90 -159q32 -94 32 -209v-33q0 -11 -2 -33h-746q1 -58 27 -116q24 -53 66 -94q39 -38 97 -62q55 -23 115 -23q97 0 165 43q70 44 110 105l129 -109q-77 -103 -177 -150q-104 -49 -227 -49q-127 0 -233 53q-105 53 -162 148q-60 -112 -169 -155 q-111 -44 -243 -44q-54 0 -119 14q-62 13 -114 44q-50 29 -85 83q-34 52 -34 132zM291 272q0 -44 17 -70q18 -27 45 -45q25 -17 64 -25q34 -7 75 -7q134 0 204 68t70 184v51h-49q-81 0 -168 -5q-74 -4 -135 -22q-56 -16 -90 -47q-33 -30 -33 -82zM946 571h557q0 61 -17 108 q-19 51 -50 87q-33 37 -82 58q-52 22 -113 22q-57 0 -112 -22q-52 -21 -92 -58t-64 -87q-26 -53 -27 -108z" />
<glyph unicode="&#xe7;" horiz-adv-x="1011" d="M102 485q0 115 39 209q38 93 109 162q68 66 165 105q91 36 206 36q100 0 203 -41q101 -40 161 -118l-139 -113q-31 48 -92 79q-62 32 -131 32q-75 0 -135 -29q-58 -28 -99 -77q-41 -48 -62 -112q-22 -66 -22 -133t22 -133q21 -62 62 -111q42 -49 100 -77q61 -29 136 -29 q73 0 134 29q60 28 99 78l129 -117q-61 -68 -143 -108q-82 -39 -195 -44l-76 -114q13 4 27 4h29q31 0 68 -8q32 -7 62 -27q26 -17 45 -49q17 -28 17 -76q0 -53 -24 -89q-23 -35 -63 -57q-41 -23 -84 -30q-50 -8 -89 -8q-53 0 -110 12q-56 12 -101 35l41 86q78 -35 158 -35 q19 0 38 4q24 5 41 13t32 26q14 17 14 43q0 44 -35 61q-36 17 -76 17q-21 0 -41 -4q-27 -5 -43 -10l-41 40l113 170q-93 11 -180 54q-84 41 -143 106q-60 66 -93 154t-33 194z" />
<glyph unicode="&#xe8;" horiz-adv-x="1173" d="M102 483q0 112 38 208q37 94 106 163q67 67 160 105t198 38q108 0 194 -34t147 -101q60 -66 93 -159t33 -209v-33q0 -11 -2 -33h-770q1 -60 28 -116q26 -55 68 -94t100 -62t119 -23q99 0 170 43q73 44 113 105l135 -109q-79 -104 -183 -151q-105 -48 -235 -48 q-111 0 -204 37q-94 37 -162 104q-69 67 -107 160q-39 94 -39 209zM274 1450h232l205 -295h-158zM299 571h578q-2 57 -20 108q-19 52 -51 87q-34 37 -84 58q-52 22 -118 22q-59 0 -116 -22q-54 -21 -94 -58q-39 -36 -65 -87q-25 -49 -30 -108z" />
<glyph unicode="&#xe9;" horiz-adv-x="1173" d="M102 483q0 112 38 208q37 94 106 163q67 67 160 105t198 38q108 0 194 -34t147 -101q60 -66 93 -159t33 -209v-33q0 -11 -2 -33h-770q1 -60 28 -116q26 -55 68 -94t100 -62t119 -23q99 0 170 43q73 44 113 105l135 -109q-79 -104 -183 -151q-105 -48 -235 -48 q-111 0 -204 37q-94 37 -162 104q-69 67 -107 160q-39 94 -39 209zM299 571h578q-2 57 -20 108q-19 52 -51 87q-34 37 -84 58q-52 22 -118 22q-59 0 -116 -22q-54 -21 -94 -58q-39 -36 -65 -87q-25 -49 -30 -108zM502 1155l205 295h231l-279 -295h-157z" />
<glyph unicode="&#xea;" horiz-adv-x="1173" d="M102 483q0 112 38 208q37 94 106 163q67 67 160 105t198 38q108 0 194 -34t147 -101q60 -66 93 -159t33 -209v-33q0 -11 -2 -33h-770q1 -60 28 -116q26 -55 68 -94t100 -62t119 -23q99 0 170 43q73 44 113 105l135 -109q-79 -104 -183 -151q-105 -48 -235 -48 q-111 0 -204 37q-94 37 -162 104q-69 67 -107 160q-39 94 -39 209zM276 1155l230 295h221l229 -295h-186l-154 203l-155 -203h-185zM299 571h578q-2 57 -20 108q-19 52 -51 87q-34 37 -84 58q-52 22 -118 22q-59 0 -116 -22q-54 -21 -94 -58q-39 -36 -65 -87 q-25 -49 -30 -108z" />
<glyph unicode="&#xeb;" horiz-adv-x="1173" d="M102 483q0 112 38 208q37 94 106 163q67 67 160 105t198 38q108 0 194 -34t147 -101q60 -66 93 -159t33 -209v-33q0 -11 -2 -33h-770q1 -60 28 -116q26 -55 68 -94t100 -62t119 -23q99 0 170 43q73 44 113 105l135 -109q-79 -104 -183 -151q-105 -48 -235 -48 q-111 0 -204 37q-94 37 -162 104q-69 67 -107 160q-39 94 -39 209zM289 1321q0 49 36 87t91 38q52 0 90 -36q37 -36 37 -89q0 -51 -37 -87q-38 -36 -90 -36q-55 0 -91 38t-36 85zM299 571h578q-2 57 -20 108q-19 52 -51 87q-34 37 -84 58q-52 22 -118 22q-59 0 -116 -22 q-54 -21 -94 -58q-39 -36 -65 -87q-25 -49 -30 -108zM686 1321q0 49 36 87t91 38q53 0 90 -36t37 -89q0 -51 -37 -87t-90 -36q-55 0 -91 38t-36 85z" />
<glyph unicode="&#xec;" horiz-adv-x="530" d="M-74 1450h232l204 -295h-157zM168 0v971h192v-971h-192z" />
<glyph unicode="&#xed;" horiz-adv-x="530" d="M168 0v971h192v-971h-192zM168 1155l205 295h231l-278 -295h-158z" />
<glyph unicode="&#xee;" horiz-adv-x="530" d="M-74 1155l230 295h221l229 -295h-186l-154 203l-155 -203h-185zM168 0v971h192v-971h-192z" />
<glyph unicode="&#xef;" horiz-adv-x="530" d="M-59 1321q0 51 35 87q36 38 92 38q52 0 90 -36q37 -36 37 -89q0 -51 -37 -87q-38 -36 -90 -36q-56 0 -92 38q-35 36 -35 85zM168 0v971h192v-971h-192zM338 1321q0 49 36 87t91 38q53 0 90 -36t37 -89q0 -51 -37 -87t-90 -36q-55 0 -91 38t-36 85z" />
<glyph unicode="&#xf0;" horiz-adv-x="1249" d="M94 485q0 113 39 207q38 93 109 162q69 67 164 105q96 38 202 38q81 0 143 -23q61 -23 123 -77l5 4q-52 101 -127 199q-75 97 -162 170l-225 -109l-99 96l226 109q-34 33 -91 76q-52 40 -92 67l158 97q58 -45 104 -84q60 -52 86 -76l222 108l106 -94l-225 -110 q75 -76 147 -172q70 -93 121 -196t81 -215q30 -111 30 -230q0 -106 -31 -211q-30 -102 -94 -181q-63 -78 -163 -125t-235 -47q-111 0 -208 38q-96 37 -166 106q-71 69 -109 162q-39 95 -39 206zM291 485q0 -69 21 -132q19 -58 63 -110q41 -49 102 -77q63 -29 139 -29 q78 0 139 29q60 29 101 77q44 52 63 110q21 63 21 132t-21 132q-20 60 -63 111q-41 48 -101 77q-61 29 -139 29q-76 0 -139 -29q-61 -28 -102 -77q-43 -51 -63 -111q-21 -63 -21 -132z" />
<glyph unicode="&#xf1;" horiz-adv-x="1191" d="M158 971h182q5 -38 6 -83q2 -62 2 -77h6q17 37 50 73q28 31 73 59q39 25 90 40q46 14 103 14q95 0 161 -31q67 -31 113 -85t67 -125q21 -72 21 -154v-602h-192v539q0 54 -10 112q-9 54 -33 94q-25 42 -68 66q-45 25 -111 25q-115 0 -187 -87q-73 -88 -73 -233v-516h-192 v762q0 18 -2 100q-2 63 -6 109zM248 1171q8 45 21 87q13 40 38 76q23 33 61 55q34 20 89 20q39 0 79 -12q35 -10 74 -29q50 -22 75 -32q33 -13 63 -13q45 0 66 30q22 32 32 64h110q-8 -45 -21 -87q-13 -40 -38 -76q-23 -33 -61 -54q-36 -20 -88 -20q-41 0 -80 13 q-40 13 -78 30q-40 19 -71 30q-37 13 -62 13q-44 0 -65 -30q-22 -31 -32 -65h-112z" />
<glyph unicode="&#xf2;" horiz-adv-x="1249" d="M102 487q0 114 40 206q41 93 110 161q68 67 166 105q97 38 207 38q109 0 206 -38t167 -105t111 -161q40 -92 40 -206q0 -113 -40 -206q-40 -94 -111 -163q-71 -70 -167 -107q-97 -38 -206 -38q-110 0 -207 38t-166 107q-70 70 -110 163t-40 206zM301 487q0 -67 22 -133 q20 -61 62 -112q40 -49 101 -78t139 -29q77 0 138 29t101 78q43 53 63 112q21 63 21 133q0 71 -21 134q-20 60 -63 111q-41 48 -101 77q-61 29 -138 29q-78 0 -139 -29q-60 -29 -101 -77q-41 -49 -62 -111q-22 -66 -22 -134zM301 1450h231l205 -295h-157z" />
<glyph unicode="&#xf3;" horiz-adv-x="1249" d="M102 487q0 114 40 206q41 93 110 161q68 67 166 105q97 38 207 38q109 0 206 -38t167 -105t111 -161q40 -92 40 -206q0 -113 -40 -206q-40 -94 -111 -163q-71 -70 -167 -107q-97 -38 -206 -38q-110 0 -207 38t-166 107q-70 70 -110 163t-40 206zM301 487q0 -67 22 -133 q20 -61 62 -112q40 -49 101 -78t139 -29q77 0 138 29t101 78q43 53 63 112q21 63 21 133q0 71 -21 134q-20 60 -63 111q-41 48 -101 77q-61 29 -138 29q-78 0 -139 -29q-60 -29 -101 -77q-41 -49 -62 -111q-22 -66 -22 -134zM508 1155l205 295h231l-278 -295h-158z" />
<glyph unicode="&#xf4;" horiz-adv-x="1249" d="M102 487q0 114 40 206q41 93 110 161q68 67 166 105q97 38 207 38q109 0 206 -38t167 -105t111 -161q40 -92 40 -206q0 -113 -40 -206q-40 -94 -111 -163q-71 -70 -167 -107q-97 -38 -206 -38q-110 0 -207 38t-166 107q-70 70 -110 163t-40 206zM287 1155l229 295h221 l230 -295h-187l-153 203l-156 -203h-184zM301 487q0 -67 22 -133q20 -61 62 -112q40 -49 101 -78t139 -29q77 0 138 29t101 78q43 53 63 112q21 63 21 133q0 71 -21 134q-20 60 -63 111q-41 48 -101 77q-61 29 -138 29q-78 0 -139 -29q-60 -29 -101 -77q-41 -49 -62 -111 q-22 -66 -22 -134z" />
<glyph unicode="&#xf5;" horiz-adv-x="1249" d="M102 487q0 114 40 206q41 93 110 161q68 67 166 105q97 38 207 38q109 0 206 -38t167 -105t111 -161q40 -92 40 -206q0 -113 -40 -206q-40 -94 -111 -163q-71 -70 -167 -107q-97 -38 -206 -38q-110 0 -207 38t-166 107q-70 70 -110 163t-40 206zM272 1171q6 39 22 87 q13 40 38 76q23 34 60 55q34 20 89 20q39 0 79 -12q38 -11 75 -29q50 -22 75 -32q33 -13 62 -13q46 0 67 30q20 29 31 64h111q-6 -39 -22 -87q-14 -42 -37 -76q-22 -32 -62 -54q-36 -20 -88 -20q-41 0 -80 13q-40 13 -78 30q-43 21 -70 30q-37 13 -63 13q-43 0 -64 -30 q-22 -31 -32 -65h-113zM301 487q0 -67 22 -133q20 -61 62 -112q40 -49 101 -78t139 -29q77 0 138 29t101 78q43 53 63 112q21 63 21 133q0 71 -21 134q-20 60 -63 111q-41 48 -101 77q-61 29 -138 29q-78 0 -139 -29q-60 -29 -101 -77q-41 -49 -62 -111q-22 -66 -22 -134z " />
<glyph unicode="&#xf6;" horiz-adv-x="1249" d="M102 487q0 114 40 206q41 93 110 161q68 67 166 105q97 38 207 38q109 0 206 -38t167 -105t111 -161q40 -92 40 -206q0 -113 -40 -206q-40 -94 -111 -163q-71 -70 -167 -107q-97 -38 -206 -38q-110 0 -207 38t-166 107q-70 70 -110 163t-40 206zM301 487q0 -67 22 -133 q20 -61 62 -112q40 -49 101 -78t139 -29q77 0 138 29t101 78q43 53 63 112q21 63 21 133q0 71 -21 134q-20 60 -63 111q-41 48 -101 77q-61 29 -138 29q-78 0 -139 -29q-60 -29 -101 -77q-41 -49 -62 -111q-22 -66 -22 -134zM301 1321q0 49 36 87t91 38q52 0 90 -36 q37 -36 37 -89q0 -51 -37 -87q-38 -36 -90 -36q-55 0 -91 38t-36 85zM698 1321q0 49 36 87t91 38q53 0 90 -36t37 -89q0 -51 -37 -87t-90 -36q-55 0 -91 38t-36 85z" />
<glyph unicode="&#xf7;" horiz-adv-x="1363" d="M143 537v168h1078v-168h-1078zM549 270q0 53 38 94q36 39 95 39t95 -39q38 -41 38 -94q0 -52 -38 -93q-37 -40 -95 -40t-95 40q-38 41 -38 93zM549 961q0 52 38 93q37 40 95 40t95 -40q38 -41 38 -93q0 -53 -38 -94q-37 -40 -95 -40t-95 40q-38 41 -38 94z" />
<glyph unicode="&#xf8;" horiz-adv-x="1249" d="M86 10l135 140q-60 69 -88 150q-31 88 -31 185q0 114 40 207q40 94 110 162q68 67 166 105q97 38 207 38q191 0 323 -104l139 143l76 -71l-137 -144q58 -67 90 -150q33 -85 33 -186q0 -113 -40 -206q-41 -95 -111 -162q-72 -69 -167 -106q-97 -38 -206 -38q-93 0 -179 28 q-79 26 -147 77l-139 -141zM295 485q0 -60 14 -112q15 -56 43 -94l479 493q-39 36 -92 53q-59 19 -114 19q-81 0 -142 -30q-60 -29 -103 -80q-44 -51 -64 -114q-21 -64 -21 -135zM416 201q84 -72 207 -72q81 0 144 30q61 29 104 80q44 51 64 114q21 65 21 134q0 55 -15 111 q-14 54 -44 94z" />
<glyph unicode="&#xf9;" horiz-adv-x="1191" d="M158 369v602h192v-537q0 -59 9 -113t34 -96q24 -41 68 -65q45 -25 110 -25q117 0 189 87q71 86 71 233v516h193v-762q0 -18 2 -100q2 -63 6 -109h-182q-5 38 -6 83q-2 62 -2 77h-4q-38 -78 -124 -132q-89 -55 -194 -55q-92 0 -163 31q-67 29 -112 85q-46 57 -66 126 q-21 72 -21 154zM268 1450h232l205 -295h-158z" />
<glyph unicode="&#xfa;" horiz-adv-x="1191" d="M158 369v602h192v-537q0 -59 9 -113t34 -96q24 -41 68 -65q45 -25 110 -25q117 0 189 87q71 86 71 233v516h193v-762q0 -18 2 -100q2 -63 6 -109h-182q-5 38 -6 83q-2 62 -2 77h-4q-38 -78 -124 -132q-89 -55 -194 -55q-92 0 -163 31q-67 29 -112 85q-46 57 -66 126 q-21 72 -21 154zM489 1155l205 295h232l-279 -295h-158z" />
<glyph unicode="&#xfb;" horiz-adv-x="1191" d="M158 369v602h192v-537q0 -59 9 -113t34 -96q24 -41 68 -65q45 -25 110 -25q117 0 189 87q71 86 71 233v516h193v-762q0 -18 2 -100q2 -63 6 -109h-182q-5 38 -6 83q-2 62 -2 77h-4q-38 -78 -124 -132q-89 -55 -194 -55q-92 0 -163 31q-67 29 -112 85q-46 57 -66 126 q-21 72 -21 154zM256 1155l229 295h222l229 -295h-186l-154 203l-156 -203h-184z" />
<glyph unicode="&#xfc;" horiz-adv-x="1191" d="M158 369v602h192v-537q0 -59 9 -113t34 -96q24 -41 68 -65q45 -25 110 -25q117 0 189 87q71 86 71 233v516h193v-762q0 -18 2 -100q2 -63 6 -109h-182q-5 38 -6 83q-2 62 -2 77h-4q-38 -78 -124 -132q-89 -55 -194 -55q-92 0 -163 31q-67 29 -112 85q-46 57 -66 126 q-21 72 -21 154zM268 1321q0 49 36 87t91 38q53 0 90 -36t37 -89q0 -51 -37 -87t-90 -36q-55 0 -91 38t-36 85zM666 1321q0 51 35 87q36 38 92 38q53 0 90 -36t37 -89q0 -51 -37 -87t-90 -36q-56 0 -92 38q-35 36 -35 85z" />
<glyph unicode="&#xfd;" horiz-adv-x="1032" d="M18 971h215l302 -762h4l268 762h205l-471 -1200q-22 -56 -54 -110q-28 -48 -67 -82q-38 -34 -91 -52q-55 -19 -124 -19q-21 0 -63 4q-27 3 -64 11l18 170q51 -17 97 -17q75 0 112 42q38 43 68 120l61 162zM428 1155l205 295h231l-278 -295h-158z" />
<glyph unicode="&#xfe;" horiz-adv-x="1302" d="M168 -492v2040h190v-729h7q45 79 135 128q91 50 211 50q109 0 197 -39q90 -40 154 -108t99 -163q35 -94 35 -200q0 -104 -35 -200q-34 -94 -98 -164q-63 -69 -154 -110q-89 -40 -202 -40q-105 0 -197 45q-93 46 -145 127h-7v-637h-190zM346 485q0 -70 24 -133 q25 -66 66 -111q44 -48 104 -77q61 -29 134 -29q80 0 140 30q62 31 101 79q42 51 62 112q20 60 20 131q0 72 -20 132q-20 61 -62 112q-40 49 -101 78t-140 29q-73 0 -134 -29t-104 -78q-41 -47 -66 -112q-24 -63 -24 -134z" />
<glyph unicode="&#xff;" horiz-adv-x="1032" d="M18 971h215l302 -762h4l268 762h205l-471 -1200q-22 -56 -54 -110q-28 -48 -67 -82q-38 -34 -91 -52q-55 -19 -124 -19q-21 0 -63 4q-27 3 -64 11l18 170q51 -17 97 -17q75 0 112 42q38 43 68 120l61 162zM207 1321q0 49 36 87t91 38q52 0 90 -36q37 -36 37 -89 q0 -51 -37 -87q-38 -36 -90 -36q-55 0 -91 38t-36 85zM604 1321q0 49 36 87t91 38q53 0 90 -36t37 -89q0 -51 -37 -87t-90 -36q-55 0 -91 38t-36 85z" />
<glyph unicode="&#x152;" horiz-adv-x="2054" d="M102 725q0 192 70 330q69 136 182 225q112 88 252 129q141 41 279 41h1044v-178h-678v-434h635v-174h-635v-484h709v-180h-1075q-138 0 -279 44q-137 43 -252 133q-113 89 -182 225q-70 138 -70 323zM319 725q0 -126 46 -230q46 -103 125 -171q81 -69 193 -107 q110 -37 243 -37h123v1092h-123q-130 0 -243 -35q-112 -35 -193 -104q-79 -68 -125 -171q-46 -104 -46 -237z" />
<glyph unicode="&#x153;" horiz-adv-x="1996" d="M102 487q0 113 39 206q39 94 108 161t164 105q96 38 205 38q135 0 243 -57q107 -56 171 -154q63 94 165 153q101 58 233 58q110 0 194 -34q86 -35 146 -101q62 -68 94 -159q32 -90 32 -209v-33q0 -11 -2 -33h-772q5 -65 30 -117q26 -53 69 -93t99 -62q58 -23 120 -23 q101 0 171 43q71 44 111 105l133 -109q-154 -199 -417 -199q-136 0 -241 57q-107 58 -167 152q-62 -94 -170 -152q-106 -57 -242 -57q-109 0 -205 38q-95 38 -164 107t-108 163q-39 95 -39 206zM299 487q0 -67 22 -133q20 -61 62 -112q41 -50 102 -78q63 -29 140 -29t138 29 t101 78q43 53 63 112q21 63 21 133q0 71 -21 134q-20 60 -63 111q-41 48 -101 77q-61 29 -138 29t-140 -29q-61 -28 -102 -77t-62 -111q-22 -66 -22 -134zM1124 571h580q-2 57 -20 108q-18 50 -52 87q-33 36 -85 58t-117 22q-59 0 -116 -22q-54 -21 -94 -58q-40 -38 -66 -87 q-25 -49 -30 -108z" />
<glyph unicode="&#x178;" horiz-adv-x="1277" d="M-6 1450h250l401 -655l404 655h235l-543 -823v-627h-204v627zM319 1731q0 49 36 87q36 37 91 37t91 -35t36 -89q0 -52 -36 -87q-37 -36 -91 -36q-55 0 -91 38t-36 85zM717 1731q0 49 36 87q36 37 91 37q54 0 90 -35q37 -36 37 -89q0 -51 -37 -87q-38 -36 -90 -36 q-55 0 -91 38t-36 85z" />
<glyph unicode="&#x2c6;" horiz-adv-x="512" d="M-84 1155l229 295h222l229 -295h-186l-154 203l-156 -203h-184z" />
<glyph unicode="&#x2dc;" horiz-adv-x="512" d="M-98 1171q8 45 21 87q13 40 38 76q23 33 61 55q34 20 89 20q37 0 78 -12q38 -11 75 -29q50 -22 75 -32q33 -13 62 -13q46 0 67 30q22 32 32 64h110q-8 -45 -21 -87q-13 -40 -38 -76q-22 -32 -62 -54q-36 -20 -88 -20q-40 0 -79 13q-40 13 -78 30q-40 19 -71 30 q-37 13 -62 13q-44 0 -65 -30q-22 -31 -32 -65h-112z" />
<glyph unicode="&#x2000;" horiz-adv-x="974" />
<glyph unicode="&#x2001;" horiz-adv-x="1948" />
<glyph unicode="&#x2002;" horiz-adv-x="974" />
<glyph unicode="&#x2003;" horiz-adv-x="1948" />
<glyph unicode="&#x2004;" horiz-adv-x="649" />
<glyph unicode="&#x2005;" horiz-adv-x="487" />
<glyph unicode="&#x2006;" horiz-adv-x="324" />
<glyph unicode="&#x2007;" horiz-adv-x="324" />
<glyph unicode="&#x2008;" horiz-adv-x="243" />
<glyph unicode="&#x2009;" horiz-adv-x="389" />
<glyph unicode="&#x200a;" horiz-adv-x="108" />
<glyph unicode="&#x2010;" horiz-adv-x="655" d="M90 418v164h475v-164h-475z" />
<glyph unicode="&#x2011;" horiz-adv-x="655" d="M90 418v164h475v-164h-475z" />
<glyph unicode="&#x2012;" horiz-adv-x="655" d="M90 418v164h475v-164h-475z" />
<glyph unicode="&#x2013;" horiz-adv-x="819" d="M61 424v154h697v-154h-697z" />
<glyph unicode="&#x2014;" horiz-adv-x="1228" d="M61 424v154h1106v-154h-1106z" />
<glyph unicode="&#x2018;" horiz-adv-x="503" d="M86 938l170 512h162l-139 -512h-193z" />
<glyph unicode="&#x2019;" horiz-adv-x="503" d="M86 938l141 512h191l-170 -512h-162z" />
<glyph unicode="&#x201a;" horiz-adv-x="503" d="M86 -272l141 512h191l-170 -512h-162z" />
<glyph unicode="&#x201c;" horiz-adv-x="872" d="M86 938l170 512h162l-139 -512h-193zM455 938l170 512h161l-139 -512h-192z" />
<glyph unicode="&#x201d;" horiz-adv-x="872" d="M86 938l141 512h191l-170 -512h-162zM455 938l141 512h190l-170 -512h-161z" />
<glyph unicode="&#x201e;" horiz-adv-x="872" d="M86 -272l141 512h191l-170 -512h-162zM455 -272l141 512h190l-170 -512h-161z" />
<glyph unicode="&#x2022;" horiz-adv-x="1024" d="M150 725q0 76 28 141t78 115t115 78t141 28t141 -28t115 -78t78 -115t28 -141t-28 -141t-78 -115t-115 -78q-67 -29 -141 -29t-141 29q-65 28 -115 78t-78 115t-28 141z" />
<glyph unicode="&#x2026;" horiz-adv-x="2048" d="M178 143q0 67 48 113q49 47 116 47q66 0 115 -45t49 -111q0 -65 -48 -112q-49 -47 -116 -47q-32 0 -62 12q-31 12 -53 33q-23 21 -36 49q-13 27 -13 61zM860 143q0 67 48 113q49 47 116 47q66 0 115 -45t49 -111q0 -65 -48 -112q-49 -47 -116 -47q-32 0 -62 12 q-31 12 -53 33q-23 21 -36 49q-13 27 -13 61zM1542 143q0 67 48 113q49 47 116 47q66 0 115 -45t49 -111q0 -65 -48 -112q-49 -47 -116 -47q-32 0 -62 12q-31 12 -53 33q-23 21 -36 49q-13 27 -13 61z" />
<glyph unicode="&#x202f;" horiz-adv-x="389" />
<glyph unicode="&#x2039;" horiz-adv-x="610" d="M82 500l299 444l127 -86l-236 -358l236 -359l-127 -88z" />
<glyph unicode="&#x203a;" horiz-adv-x="610" d="M102 858l127 86l299 -446l-299 -445l-125 88l236 357z" />
<glyph unicode="&#x205f;" horiz-adv-x="487" />
<glyph unicode="&#x20ac;" d="M29 469l49 145h96q-1 15 -3 51q-1 18 -1 52q0 39 1 61q2 40 5 56h-143l51 145h115q29 119 87 213t139 160q80 65 183 100t219 35q88 0 175 -19q82 -18 141 -49l-64 -164q-53 29 -117 44q-70 16 -145 16q-76 0 -142 -24q-71 -26 -122 -66q-54 -42 -95 -106 q-40 -62 -61 -140h602l-47 -145h-583q-5 -27 -6 -57l-3 -60q0 -32 1 -51q2 -30 6 -52h524l-47 -145h-455q15 -75 52 -134q39 -62 95 -105q59 -45 127 -68q73 -25 152 -25q81 0 148 18q69 18 127 56l71 -156q-66 -43 -156 -67q-95 -25 -202 -25q-133 0 -237 42 q-101 41 -180 112q-77 69 -125 161q-47 89 -68 191h-164z" />
<glyph unicode="&#x2122;" horiz-adv-x="2048" d="M115 1303v147h690v-147h-260v-697h-166v697h-264zM975 606v844h242l231 -598l231 598h240v-844h-168v629h-4l-244 -629h-112l-246 629h-4v-629h-166z" />
<glyph unicode="&#x25fc;" horiz-adv-x="972" d="M0 0v973h973v-973h-973z" />
</font>
</defs>
</svg>
